<svg xmlns="http://www.w3.org/2000/svg" viewBox="0 0 679.82 677.18"><defs><style>.cls-1{fill:#fff;}.cls-2{fill:#4343dd;}.cls-3{fill:#3030c4;}.cls-4{fill:#d3d3d3;}.cls-5{fill:none;stroke:#000;stroke-miterlimit:10;stroke-width:2.39px;}</style></defs><title>Logo-PurpleGuy-3</title><g id="Borda_Branca" data-name="Borda Branca"><path class="cls-1" d="M849.77,540.75c-5.64-24-22.16-44.85-43.52-57a.88.88,0,0,1-.4-.49c-6.37-20.44-10-41.91-14.57-62.9-6.68-30.45-16.33-61.66-37.87-84.19-20-20.88-48.06-32-76.08-39s-56.93-10.55-84.44-19.36c-45-14.43-88.55-43.18-135.41-36.71-33,4.56-62.73,28.13-74.69,59.25-10.7,27.84-7.65,59.23-16.4,87.74-7.06,23-21.43,43-32.18,64.54-7.36,14.77-13,31.38-13.14,47.63a.86.86,0,0,1-.38.71l-14,9.42c-9.83,6.61-20.24,14-24.25,25.1-5.17,14.35,1.89,29.83,4.59,44.85,3.4,18.93.05,39.81,9.87,56.36,4.75,8,12.19,14,20.56,18.28a.86.86,0,0,1-.19,1.61c-15.47,3.76-30.09,10.25-42.59,20.08-24.45,19.26-38.74,53-29.58,82.7,4.84,15.71,15.47,29,27.11,40.6,14.16,14.14,31.56,27,51.54,28,13.65.69,27-4.26,39.09-10.63,13.08-6.89,25.34-15.67,35-26.78a.85.85,0,0,1,1.25,0c34.62,34.23,83.3,53.21,132.11,56.38,53.77,3.5,107.58-10.84,156.21-34C710.14,802,732.26,789,749.54,770.69c29.12-30.84,41.67-73.32,53.22-114.14l.43,0c7.77.51,15.94.22,22.77-3.52,12.54-6.86,16.62-22.59,19.47-36.59C850.52,591.49,855.6,565.57,849.77,540.75ZM452,760.82a.89.89,0,0,1-.76-.13,182.67,182.67,0,0,1-30.21-27c-.88-1,49.12-42.54,48.26-43.54-4.46-5.17-59.45,30-63.21,24.41a.86.86,0,0,0-1.53.19c-.11.31-.22.63-.34.94a.87.87,0,0,1-1.55.16l-17.37-27.53a.87.87,0,0,1,.81-1.33l3.41.34c.58,0,1.11.14,1.68.2-2.37-5.41-11.9-15.2-6.21-16.46,58.32-12.9-.3-1.06-.45-1.59-3.33-11.06,44.78-24,44.78-35.3,0-10-51.84-3.16-52-5.58a189.43,189.43,0,0,1,0-22.73c.24-4.55.68-9,1.26-13.5a.85.85,0,0,1,.56-.7c6.34-2.3,13.21-4.72,20.62-7.2,10.49-3.6,22.14-7,34.63-10.45,12.58-3.18,26-6.54,40.34-9,2.12-.39,4.27-.76,6.43-1.13a.87.87,0,0,1,.91,1.28c-.31.53-.61,1.07-.9,1.61a95.7,95.7,0,0,0-7.67,19.68,120.78,120.78,0,0,0-3.84,21.5c-1.28,15,.13,31.6,7.07,47.71A83.55,83.55,0,0,0,491,678.18a75.14,75.14,0,0,0,22.35,17.16,65.44,65.44,0,0,0,55.91,1.11,57.13,57.13,0,0,0,8.58-4.94.87.87,0,0,1,1.29,1.06,68.72,68.72,0,0,0-2.73,6.94,2.17,2.17,0,0,0,3.76,2c7.57-9.2,14.11-24.34,18-34.65l0-.05a82.88,82.88,0,0,0,4-10.41,102.62,102.62,0,0,0,4-21.87,156.43,156.43,0,0,0,.26-20c-.58-12.57-2.36-24.68-5.9-35.43a86.14,86.14,0,0,0-6.46-14.89,66.28,66.28,0,0,0-4.4-6.87.87.87,0,0,1,.71-1.39c9.35.14,18.53.49,27.51,1.12q6.41.48,12.67,1.12a.87.87,0,0,1,.62,1.36,78.91,78.91,0,0,0-4.41,7.24,95.7,95.7,0,0,0-7.67,19.68A120.78,120.78,0,0,0,615.3,608a107.16,107.16,0,0,0,.89,26.39h0a92.06,92.06,0,0,0,3.33,13.71c3.62,13.11,10.24,32.63,20,44.69a2.46,2.46,0,0,0,4.16-2.54c-.74-1.64-1.6-3.36-2.54-5.17a.86.86,0,0,1,1.34-1A73.55,73.55,0,0,0,659,695.34c.92.45,1.85.87,2.79,1.27a.87.87,0,0,1-.09,1.63Zm96.26-155.6c-42.46,1.51,32.71,32.43,28.86,42.9s-10.27,19-19.4,22.75a37.06,37.06,0,0,1-15.56,2.81,39.92,39.92,0,0,1-16.11-4,48.72,48.72,0,0,1-13.88-10.58,58.18,58.18,0,0,1-9.8-14.79c-5-10.69-6.74-22.92-6.37-34.65a105.26,105.26,0,0,1,2-17.25,78.45,78.45,0,0,1,4.55-15.18,46.9,46.9,0,0,1,12.64-17.77,1,1,0,0,1,.5-.21c16.87-1.74,34.52-2.83,52.71-3.22a.87.87,0,0,1,.72.35,60.78,60.78,0,0,1,3.72,5.51A59.72,59.72,0,0,1,577.62,572,80.22,80.22,0,0,1,581,584.31C582.69,593.2,559.54,604.82,548.25,605.22Zm176.4-27.63a.87.87,0,0,1,.59.6q.79,3,1.41,6.12c1.7,8.89,2.17,19.1,1.72,30.39s-1.75,22.95-5.6,33.42-10.27,19-19.4,22.75a37.06,37.06,0,0,1-15.56,2.81,40,40,0,0,1-16.11-4c-5.15-2.58,17.51-34.08,13.48-38.44S650.46,649.64,648,644.28c-5-10.69-6.74-22.92-6.37-34.65a106.37,106.37,0,0,1,2-17.25,79.16,79.16,0,0,1,4.55-15.18A47.61,47.61,0,0,1,658,562.1a.83.83,0,0,1,.76-.25l4.24.68c14.25,2.54,27.71,5.6,40.25,8.88C710.71,573.45,717.86,575.51,724.65,577.59ZM745.38,563c-10.46-4.92-22.25-9.68-35.12-14.31a404,404,0,0,0-42.1-12.06,416.49,416.49,0,0,0-47.91-7.54,474.5,474.5,0,0,0-51.84-1.76c-35.3.72-69.09,4.79-99.09,11.86a410,410,0,0,0-42,12.14c-12.86,4.65-24.68,9.36-35.13,14.34-3.33,1.56-6.48,3.1-9.55,4.64-10.15,5.09-18.92,10-26.22,14.56a.87.87,0,0,1-1.32-.67l-1.76-20.6v-.16l1.83-18.9a.87.87,0,0,0-1.72-.24l0,.19a.86.86,0,0,1-1.71-.09l-1.43-16.84a.85.85,0,0,1,.47-.85c2.75-1.35,5.63-2.71,8.5-4.09.9-.44,1.81-.86,2.71-1.29a.86.86,0,0,1,.35-.09l44-1.07a.85.85,0,0,1,.88.89A263.15,263.15,0,0,0,407.7,548l.15-27a.86.86,0,0,1,.85-.86l131.2-3.21c0,.29.05.57.08.86v-.86l234.27-5.73a.86.86,0,0,1,.88.93l-4.81,62.13a.86.86,0,0,1-1.27.69q-4-2.17-8.35-4.42Q753.53,566.82,745.38,563ZM411.9,768.14c.26-.62.51-1.24.75-1.87a.86.86,0,0,1,1.4-.32c1.3,1.23,2.61,2.44,3.95,3.64a.86.86,0,0,1-.33,1.47l-3.51,1.05a.88.88,0,0,1-1.05-.48c-.42-.93-.83-1.87-1.22-2.83A.89.89,0,0,1,411.9,768.14Zm329.59-93.71a.87.87,0,0,1-1-1.28,75.09,75.09,0,0,0,7.34-16.76,102.62,102.62,0,0,0,4-21.87,156.43,156.43,0,0,0,.26-20,146.84,146.84,0,0,0-3.74-27.74.87.87,0,0,1,1.13-1q6.65,2.29,12.62,4.42a.87.87,0,0,1,.58.78,185.93,185.93,0,0,1-14,81,.9.9,0,0,1-.56.5ZM790,660a.87.87,0,0,1-1.08-1.07c.07-.26.15-.51.22-.76l-1,2.1a.88.88,0,0,1-.53.45L783,662a.86.86,0,0,1-1.08-1l.92-3.42.79-2.95a.85.85,0,0,1,1-.62,126,126,0,0,0,12.64,2,.87.87,0,0,1,.16,1.69Z" transform="translate(-207.25 -205.16)"/><path class="cls-1" d="M883.5,531.45c-8-32.7-30.62-61.11-59.59-77.88L831,459l-.4-.5,9,15.44c-13.84-45-16.15-93.1-40.45-134.63a147,147,0,0,0-53.71-53.15c-20.12-11.57-42.68-19.09-65.21-24.32-22.94-5.33-46.31-8.77-69-15.12-21.46-6-41.72-15.27-62.33-23.58-22.52-9.08-45.24-15.94-69.61-17.71s-49.34,4.14-70.83,15.89c-21.71,11.85-41.2,31.21-52.35,53.38a143.71,143.71,0,0,0-13.35,40.38c-2.65,15.47-3.91,31.13-5.95,46.69l1.25-9.3c-1.79,13-4.58,25.63-9.58,37.82L332,382c-7.37,17.36-17.74,33.14-26.38,49.85-11.06,21.4-19.06,44.11-19.51,68.43l4.77-17.66-.38.71L303,470.75c-13,8.71-27.53,17-38.12,28.47-12.47,13.55-20.23,31.07-19.25,49.78.79,15.11,5.92,29.08,8.14,43.89l-1.25-9.3c2.31,17.49,1,35.75,6.36,52.77a82.57,82.57,0,0,0,40.88,48.82l-12.55-12.55.46.87,5.47-42.4-.66.74,15.44-9c-27,6.76-53.91,20.9-71.75,42.69-18.1,22.11-30.71,50.26-28.75,79.44,2.13,31.55,18,57.77,40,79.73,21.46,21.4,50.05,39.84,81.6,38.22,19.47-1,37.5-7.62,54.43-17,14.37-8,28.17-18.3,39.1-30.62l-7.08,5.47.61-.3L389.16,824l.63.24-15.44-9c53.74,52.64,132.43,74.21,206.2,65.07,20.8-2.57,41.22-6.32,61.31-12.37a448.08,448.08,0,0,0,58.22-22.53c15.7-7.24,31.11-15.35,45.17-25.47a200,200,0,0,0,45.87-45.29c23.29-31.85,34.75-71.3,45.37-108.79l-33.73,25.68c19.47,1.65,39.08-4.22,53.38-17.7,11.54-10.88,18.1-26.71,21.68-41.88,7.74-32.84,13.15-67.13,5.68-100.5-4-17.87-25.66-30.05-43-24.43-18.76,6.07-28.73,23.88-24.44,43,.7,3.11,1.26,6.21,1.7,9.36l-1.25-9.3c1.46,12,.9,24.06-.63,36.07l1.25-9.3c-2.26,16.69-4.66,35-11.22,50.63l3.52-8.36a48.1,48.1,0,0,1-4.69,8.3l5.47-7.08a34.08,34.08,0,0,1-5.54,5.72l7.08-5.47a31.48,31.48,0,0,1-6.42,3.63l8.36-3.53a40.4,40.4,0,0,1-8,2l9.3-1.25a64.27,64.27,0,0,1-12.17.13l-9.3,1.25a26.32,26.32,0,0,0-11.9,6.26A34.79,34.79,0,0,0,769,647.25c-5.81,20.54-11.8,41.07-20,60.81l3.53-8.36c-6.33,14.94-13.95,29.25-23.75,42.21l5.47-7.08A151,151,0,0,1,707,761.92l7.08-5.47c-18.61,14.1-39.66,24.62-61.08,33.74l8.36-3.53c-27.72,11.66-56.64,20.28-86.45,24.45l9.3-1.25a261.36,261.36,0,0,1-69.23.39l9.3,1.25A227.62,227.62,0,0,1,467.62,796l8.36,3.53a201.77,201.77,0,0,1-43.39-25.33l7.08,5.47c-3.4-2.67-6.73-5.42-9.94-8.31-1.61-1.45-3.16-3-4.74-4.43-6.35-5.89-13.29-9.85-21.88-11a34.93,34.93,0,0,0-26.46,7.19,71.93,71.93,0,0,0-7.59,7.09,113.33,113.33,0,0,1-10.84,9.58l7.08-5.47a141.41,141.41,0,0,1-29.84,17.46l8.36-3.52A84.85,84.85,0,0,1,325,793.68l9.3-1.25a58.89,58.89,0,0,1-15.41.06l9.3,1.25a64.82,64.82,0,0,1-13.8-3.89l8.36,3.53a92.11,92.11,0,0,1-19.47-11.64l7.08,5.47a158,158,0,0,1-26.64-26.77l5.47,7.08a94.37,94.37,0,0,1-11.7-19.66l3.53,8.35A70.53,70.53,0,0,1,276.61,740l1.25,9.3a73.36,73.36,0,0,1,.15-18.9l-1.25,9.3a84,84,0,0,1,5.63-19.78l-3.53,8.36a92.89,92.89,0,0,1,11.36-19.21l-5.47,7.08a92.08,92.08,0,0,1,16-15.81l-7.08,5.47a110.67,110.67,0,0,1,21.92-12.66l-8.36,3.53c11.67-4.89,26.71-6.41,35.42-16.12,10.76-12,13.14-28.08,5.47-42.4-5.21-9.71-14.11-13.12-22.26-19.18l7.08,5.47a52.33,52.33,0,0,1-8.73-8.68l5.47,7.08a47.8,47.8,0,0,1-5.48-9.67l3.53,8.35a69.31,69.31,0,0,1-3.85-15.7l1.25,9.3c-1.25-10.21-1.22-20.53-2.51-30.74-1.69-13.46-5.59-26.2-7.71-39.53l1.24,9.3a51.9,51.9,0,0,1-.32-12l-1.25,9.3a36.89,36.89,0,0,1,2.13-8.13l-3.53,8.36a39.37,39.37,0,0,1,4.69-7.77L312.4,551a64.25,64.25,0,0,1,10.07-9.57l-7.08,5.47c5.66-4.28,11.66-8.15,17.55-12.11,1.8-1.21,3.64-2.38,5.41-3.64,11-7.8,16.79-17.29,17.7-30.91.24-3.51.34-7,.8-10.47l-1.25,9.3a119.21,119.21,0,0,1,7.88-27.43L360,480c9.23-21.72,23.17-41,32.44-62.73,5.59-13.09,10-25.87,12.2-40,2.32-14.63,3.62-29.38,5.53-44.06l-1.25,9.3c1.66-12.17,4-24.22,8.73-35.61l-3.53,8.36a96.74,96.74,0,0,1,11.64-19.93l-5.47,7.09A103,103,0,0,1,437.54,285l-7.08,5.47a102.4,102.4,0,0,1,22.42-13.12l-8.36,3.53a95.65,95.65,0,0,1,22.26-6.09l-9.3,1.24a113.49,113.49,0,0,1,28.41,0l-9.3-1.25c29.67,4,56.8,17.4,84.31,28.39a315.23,315.23,0,0,0,43.55,14c15.89,3.8,32,6.61,48,10,16.5,3.52,32.81,7.79,48.44,14.22L692.51,338a145.4,145.4,0,0,1,31.13,17.59l-7.08-5.47a110.18,110.18,0,0,1,19.53,19.49l-5.47-7.08a139.26,139.26,0,0,1,16.78,29.69l-3.53-8.36c8.28,20.11,12.83,41.34,17.19,62.57,2.35,11.49,4.7,23,7.68,34.33,2.6,9.89,5.23,20.35,12.77,27.76,5.27,5.17,12.46,8.5,18.32,13L792.75,516a100.13,100.13,0,0,1,16,15.92l-5.47-7.08a94.75,94.75,0,0,1,12.15,20.67l-3.53-8.36A91.41,91.41,0,0,1,816,550.05c4.36,17.79,25.42,30.14,43,24.44C877.53,568.51,888.17,550.51,883.5,531.45Z" transform="translate(-207.25 -205.16)"/><path class="cls-1" d="M461.29,727.08l-.76-.12,8.36,3.53q-2.89-2.09-5.72-4.24l7.08,5.47A193,193,0,0,1,445.76,709l9,15.43V743l0-.07-3.53,8.36a2.39,2.39,0,0,1,.13-.21l-5.47,7.08c4.48-5.69,11.14-10.29,16.57-15C470.65,736,478.9,729,487,721.76c2.2-2,4.44-3.9,6.47-6a35.81,35.81,0,0,0,10.19-20.85c2.28-16.92-8.48-34.66-25.62-38.79-16.58-4-30.89,2.89-45.47,9.89-11.24,5.4-22.17,11.52-33.66,16.38l8.35-3.53a35.61,35.61,0,0,1-7.84,2.56l9.3-1.25a8.16,8.16,0,0,1-1.4.07l9.3,1.25a3.3,3.3,0,0,1-.75-.19l8.35,3.53-.19-.11,7.08,5.47c-2.63-2.16-5.07-4.7-8.19-6.14-7.36-3.4-14.08-5.26-22.31-4.15s-13.62,4.42-20.09,9.62c-5.43,4.36-7.76,10.66-10,16.94l9-15.44-.73.56,42.4-5.47-.83-.4,12.55,12.55-17.37-27.53,4.78,17.66v-.92l-17.33,30.21.82-.41L386.09,722c1.7.16,3.39.33,5.09.54,11.81,1.43,24.56-7.68,30.21-17.33,6.71-11.48,5.53-23.77,0-35.31-2-4.25-5.25-7.8-7.32-12l3.52,8.36a9.13,9.13,0,0,1-.66-2.26l1.25,9.3,0-.62L417,682l.17-.53-3.52,8.35.34-.44L401.4,701.89l.51-.34-8.35,3.52c6.79-2.25,14.22-3.21,21.19-4.86a50,50,0,0,0,20.8-10.4l5.47-7.08a26.06,26.06,0,0,0,4.15-13c.95-7.08.28-16.32-4.15-22.31-5.67-7.65-11.4-13.47-20.92-16.09a32,32,0,0,0-9.58-1.25,94.8,94.8,0,0,0-10.83,1.46c-2.57.41-5.13.89-7.7,1.35-5.33,1-10.66,2.1-16,2.84l9.3-1.25a4.37,4.37,0,0,1-.72.06l17.66,4.78,0,0,16.08,20.91-.11-.44,1.25,9.3a6.09,6.09,0,0,1,0-1.35L418.14,677a4.71,4.71,0,0,1,.25-.91l-3.53,8.36a10,10,0,0,1,1-1.83l-5.47,7.08a21.33,21.33,0,0,1,3.33-3.25L406.68,692c17.12-13.16,40.89-17.52,52.22-37.8A40,40,0,0,0,459,615c-5.17-9.5-15.4-15.79-25.52-18.65s-21.57-2.94-32.09-2.75c-7.55.14-15.43,1.23-22.95.46l9.3,1.25a4.17,4.17,0,0,1-.93-.2l8.36,3.52-.12-.07,7.08,5.47-.08-.07,9,15.43,0-.08,1.25,9.3a203.07,203.07,0,0,1,1.24-36.23l-10.25,24.74.57-.71-15.44,9c33.27-12,67.12-21.82,102-27.79h-18.6l.86.36L447,564.27l.05.92,4.78-17.66c-10.28,18.54-15.14,38.55-17.1,59.51-1.63,17.44.29,36.25,6.19,52.76,13.25,37.07,44,69.89,84.46,75.63,13.75,2,25.86,2,39.59-.82a86.85,86.85,0,0,0,30.52-12.89l-8.36,3.53.74-.13-34-9,.54.44-10.25-24.73v.74l4.78-17.66c-3,6.9-5.89,12.63-6.88,20-1.61,12,1.93,23.48,10.67,31.93,9.59,9.27,23.08,12.24,35.9,9.09,10.78-2.64,17.77-11,23.91-19.54,8.75-12.15,13.66-26.57,19.42-40.23l-3.52,8.35c3.15-7,6.29-14.14,8.3-21.59,2-7.26,2.87-14.71,3.81-22.15a156.86,156.86,0,0,0,.64-30.87c-1.74-24.33-6.83-49.89-21.26-70.16l4.78,17.66-.07-.92-17.33,30.21.78-.47-17.65,4.77c13.43.23,26.81.92,40.18,2.24l-17.66-4.77.7.5L596.31,558.7l-.08.86L601,541.9c-8.74,13-14.62,28.62-17.65,44-3.89,19.74-3.93,38-.9,57.77l58.47-34h0l-7.08-5.47a26,26,0,0,0-13-4.15c-7.46-1-15.79,0-22.31,4.15-13.75,8.86-19.21,23.64-16.07,39.51a207.23,207.23,0,0,0,18.85,54.13c8.1,15.73,20.73,30.9,40.06,30.9,16.53,0,31.86-11.62,36.18-27.59,3.33-12.26-.7-23-6.19-33.7l4.78,17.66v-.8l-17.32,30.21.58-.45-26.95,3.53.76.21-15.43-9c8,7,16.6,13.74,26.37,18.05l-12.55-12.55.53.84,5.47-42.39-.62.78,15.44-9-71,21.18L468.75,719.31l-26.06,7.77c-17.52,5.23-30.34,24.79-24.44,43,5.74,17.72,24.26,30,43,24.43l71.9-21.45,113.38-33.84c12-3.57,32.47-7,40.49-17.07,5-6.25,8.53-11.93,9.62-20.08,1-7.57,0-15.65-4.15-22.31-4.8-7.75-10.55-11.73-18.13-15.86a77.29,77.29,0,0,1-9.16-5.91l7.08,5.47c-5.34-4.13-10-8.77-16.34-11.44-10.52-4.44-22.59-4.16-32.49,2a36.11,36.11,0,0,0-17.32,31c.1,8.62,3.87,15.36,7.32,22.83L610,699.54l.24,1.09V682l-.23,1,3.53-8.36-.58.77,12.55-12.55-.82.5,8.36-3.53-.94.17h18.6l-1-.24,15.43,9a5.93,5.93,0,0,1-1.74-1.82l5.47,7.08a97,97,0,0,1-11.14-20.11l3.53,8.36a197.37,197.37,0,0,1-11.34-37.19l-58.47,34h0l7.08,5.47a26,26,0,0,0,13,4.16c7.46,1,15.79,0,22.31-4.16A41.73,41.73,0,0,0,646.4,652c5.34-8.29,4.93-17.74,3.52-26.95l-.29-1.94,1.25,9.3a116.47,116.47,0,0,1,0-30l-1.25,9.3a118.41,118.41,0,0,1,7.88-29.29L654,590.77c4.58-10.34,12.4-19.22,12.21-31.21-.21-12.87-6.33-24.66-17.6-31.32-7.29-4.31-15.23-4.8-23.4-5.54q-10-.9-20-1.31c-11.42-.48-23-1.36-33.25,4.83-10,6-18.3,18.1-17.33,30.21.53,6.65,1.54,12.75,4.85,18.58.92,1.62,2.16,3.1,3.13,4.7a84.34,84.34,0,0,1,5.14,10.12l-3.53-8.35A114.43,114.43,0,0,1,571.43,609l-1.25-9.3a161.75,161.75,0,0,1,.26,41.88l1.25-9.3a98.17,98.17,0,0,1-6.43,23.44l3.52-8.35c-2.65,5.91-4.94,11.94-7.43,17.91l3.52-8.35c-3.83,9-8.12,17.94-14,25.78l5.47-7.08-.86,1.09,7.08-5.47-.86.65,8.36-3.53-1,.16h18.6l-.91-.26,15.43,9-.72-.6,5.47,7.08-.39-.87,4.77,17.65.07-1.06-1.24,9.3c.61-1.85,1.32-3.65,2.07-5.45l-3.53,8.36c2.77-6.33,5.62-11.9,5.43-19.15a56.5,56.5,0,0,0-1.26-10c-3.1-13.62-16.43-23.73-29.63-25.51a36.78,36.78,0,0,0-25.1,5.65,61.41,61.41,0,0,1-8.06,4.26l8.36-3.53a69.37,69.37,0,0,1-16.18,4.46l9.3-1.25a72.49,72.49,0,0,1-16.85.1L544,668a72.94,72.94,0,0,1-18.17-4.9l8.36,3.53A76.24,76.24,0,0,1,519.51,658l7.08,5.47a83.27,83.27,0,0,1-14.13-14l5.47,7.08a89,89,0,0,1-11-18.55l3.53,8.36a98,98,0,0,1-6.61-24.28l1.25,9.3a116.77,116.77,0,0,1,.15-29l-1.25,9.3a118.83,118.83,0,0,1,7.87-29.29l-3.52,8.35c3.83-8.67,9.2-16.44,8.65-26.5-.43-7.92-2.62-14.87-7.51-21.2-5-6.52-10.55-9.37-18.17-12.54-8.13-3.38-17.55-.72-25.89.78-4.89.88-9.77,1.81-14.63,2.85-8.34,1.8-16.64,3.8-24.88,5.94-17.33,4.51-34.37,10.11-51.23,16.12-3.05,1.09-6,2.24-9,3.51a36.33,36.33,0,0,0-17.29,15c-4.83,8.25-5.17,18.81-5.85,28.23-.8,11-1.85,24.22,1.08,34.95,4.6,16.84,19.69,25.45,36,26.21,3.13.14,6.3,0,9.43-.16,10.18-.37,20.53-1,30.67.24l-9.3-1.25a28.12,28.12,0,0,1,6.46,1.52L408.49,661a10.76,10.76,0,0,1,1.7.93l-7.08-5.47a6.29,6.29,0,0,1,.87.84l-5.47-7.08a2.82,2.82,0,0,1,.37.63l-3.53-8.36a2.36,2.36,0,0,1,.19.69l-1.25-9.3a2.82,2.82,0,0,1,0,.82l1.25-9.3a6.45,6.45,0,0,1-.37,1.37l3.53-8.35a11.74,11.74,0,0,1-1.13,1.85l5.47-7.08a22.33,22.33,0,0,1-3.45,3.28l7.08-5.47c-8,6.09-17.58,10-26.35,14.88-16.31,9.09-31.16,22.73-30.92,43,.18,15.78,10.45,30.18,25.84,34.42,7.83,2.15,11.69,1.13,19.57-.1,2.4-.37,4.8-.8,7.2-1.23,5.72-1,11.43-2.23,17.19-3.06l-9.3,1.25a6,6,0,0,1,.84-.08l-9.3-1.25h.06l-20.91-16.07h0l5.47-42.39,0,0,7.08-5.47-.07,0,8.35-3.53c-8.21,3-17.33,3.64-25.73,6C355,643.11,344,664.68,350.12,684.84c2.41,8,7.4,13.18,10.85,20.38l30.21-52.64c-8.45-1-15.85.75-23.56,4.65-10.74,5.42-17.42,18.49-17.33,30.2.1,13.15,6.94,22,13.47,32.34,5.84,9.25,12,21.86,22.06,26.72,7.27,3.51,14.17,5.24,22.31,4.15s13.49-4.49,20.09-9.62c5.44-4.24,7.81-10.75,10.06-16.94l-9,15.44L430,739l-42.4,5.47.82.38-7.08-5.47c3.64,4.41,10.56,7.82,15.93,9.4a42.44,42.44,0,0,0,10.36,1.45,45.06,45.06,0,0,0,13.24-2c7.39-2.26,14.48-5.74,21.44-9.07,11.28-5.41,22.24-11.54,33.76-16.43l-8.35,3.52a35,35,0,0,1,8.44-2.73l-9.3,1.25a6.28,6.28,0,0,1,1.37,0l-9.3-1.25a2.23,2.23,0,0,1,.51.12L451.08,720a1.87,1.87,0,0,1,.39.22l-7.08-5.47.16.15-9-15.44V680.92l0,.07,3.53-8.36a1.1,1.1,0,0,1-.14.21l5.47-7.08c-3.93,5-9.7,9-14.45,13.18-7.47,6.51-15,13-22.45,19.5-8.4,7.38-17.05,14.46-20.2,25.87-4,14.41,1.69,26.38,11.34,36.73q4.8,5.13,10,9.9t10.77,9.17c6.37,5,14.87,13,23.32,14.44,9.56,1.57,18.29,1.54,27-3.52,7.25-4.25,14.17-12.57,16.07-20.91,2-9,1.6-19-3.52-27C477.56,736,470.1,728.53,461.29,727.08Z" transform="translate(-207.25 -205.16)"/><path class="cls-1" d="M548.25,570.24c-16.25.68-34.44,5-42.86,20.72-9.17,17.11-4.78,35.7,8.26,49.18,10.85,11.2,25.47,18.52,37.79,27.93l-7.08-5.47a36.81,36.81,0,0,1,6.79,6.28l-5.47-7.08a9.76,9.76,0,0,1,1,1.67l-3.52-8.36a5.25,5.25,0,0,1,.33,1.22l-1.25-9.3a2.62,2.62,0,0,1,0,.56l1.25-9.3a18,18,0,0,1-1.27,3.47l3.52-8.36a50.19,50.19,0,0,1-6.07,10.38l5.47-7.08a40,40,0,0,1-6.1,6l7.08-5.47a34.84,34.84,0,0,1-6.08,3.47l8.36-3.53a41.08,41.08,0,0,1-8.32,2.36l9.3-1.25a45,45,0,0,1-10.56.19l9.3,1.25a45.36,45.36,0,0,1-11.26-3l8.36,3.52a50.23,50.23,0,0,1-9.53-5.82l7.08,5.47a58.44,58.44,0,0,1-9-9.2l5.47,7.08A66.45,66.45,0,0,1,531.84,625l3.53,8.36a76.52,76.52,0,0,1-5-18.85l1.25,9.3a102.34,102.34,0,0,1,.13-23.92l-1.25,9.3a92.52,92.52,0,0,1,5.76-22.7l-3.52,8.35a56.59,56.59,0,0,1,6.45-11.22l-5.47,7.08a53.17,53.17,0,0,1,6.19-6.54l-7.08,5.47.49-.21-17.65,4.78c17.52-1.79,35.1-2.82,52.71-3.22l-17.65-4.78.72.35L538.89,574a66.79,66.79,0,0,1,7.29,12.54l-3.52-8.36a83.83,83.83,0,0,1,4.59,15.42l-1.25-9.3a5,5,0,0,1,.07,1.39l1.25-9.3a9.38,9.38,0,0,1-.56,2.14l3.53-8.36a16.26,16.26,0,0,1-1.28,2.17l5.47-7.08a27.76,27.76,0,0,1-4.31,4.29l7.08-5.47a59.2,59.2,0,0,1-12.77,7.3l8.35-3.53a50.77,50.77,0,0,1-12.06,3.48l9.3-1.25c-.6.07-1.21.12-1.82.15-9.3.55-18,3.52-24.74,10.24-6.07,6.07-10.64,16-10.25,24.74.81,18,15.42,36.14,35,35A86.84,86.84,0,0,0,600.9,618c9.19-8.36,15.39-20.76,15.11-33.32-.28-12.74-5.64-26.68-11.48-37.77a74.89,74.89,0,0,0-10.7-15.28c-8.53-9.29-21.38-10.77-33.22-10.38q-13.77.45-27.52,1.46-6.92.52-13.81,1.19c-5.89.57-11.59,1-17.1,3.37a42.67,42.67,0,0,0-13.4,9c-9.46,9-15.17,19.81-20,31.7-8.74,21.52-9.28,46.13-5.36,68.75,4.12,23.7,18.06,43.83,37,58.1,21.85,16.48,52.15,17.71,76.26,5.75,10.66-5.28,19.16-14.6,25.59-24.39,7.17-10.93,12.59-25.44,8.71-38.53-7-23.54-31.26-33.81-49.34-47.6l7.08,5.47a42,42,0,0,1-7.09-6.5l5.47,7.08a11.4,11.4,0,0,1-1.3-2.11l3.53,8.36A5.54,5.54,0,0,1,569,601l1.25,9.3a3,3,0,0,1,0-.6L569,619a3.93,3.93,0,0,1,.23-.83l-3.52,8.35A2.67,2.67,0,0,1,566,626l-5.47,7.08a5.44,5.44,0,0,1,.73-.71l-7.08,5.47a8.21,8.21,0,0,1,1.48-.82l-8.36,3.52a22.28,22.28,0,0,1,4.83-1.18l-9.3,1.25c1.81-.22,3.62-.35,5.44-.43,18.26-.77,35.85-15.53,35-35C582.41,586.93,567.83,569.41,548.25,570.24Z" transform="translate(-207.25 -205.16)"/><path class="cls-1" d="M699.91,602.33l.59.6-9-15.44a99.48,99.48,0,0,1,2.16,10.68l-1.25-9.3a160.32,160.32,0,0,1-.18,40.12l1.25-9.3a90.31,90.31,0,0,1-5.59,22.07l3.52-8.36a50.19,50.19,0,0,1-6.07,10.38l5.47-7.08a39.08,39.08,0,0,1-6.1,6l7.08-5.47a34.84,34.84,0,0,1-6.08,3.47l8.36-3.53a40.9,40.9,0,0,1-8.32,2.36l9.3-1.25a44.94,44.94,0,0,1-10.56.19l9.3,1.25a45.36,45.36,0,0,1-11.26-3l8.36,3.52a6.63,6.63,0,0,1-1.77-.87l7.08,5.47-.19-.2,5.47,7.08-.15-.25,3.53,8.36a2.09,2.09,0,0,1-.17-.64l1.25,9.3a6.68,6.68,0,0,1,0-1.26l-1.25,9.3a24.46,24.46,0,0,1,1.55-4.85L702.77,680c9.63-22.53,28.36-46,9.89-69.94-9.61-12.43-24.39-16.22-39.29-13-5.46,1.17-10.62,3.81-15.64,6.14-6.78,3.16-13.18,7.11-20,10.13l8.35-3.53a22.87,22.87,0,0,1-4.84,1.59l9.3-1.25a6.56,6.56,0,0,1-1.25,0l9.3,1.25a2.28,2.28,0,0,1-.63-.18l8.35,3.53-.24-.16,7.08,5.47-.2-.2,5.47,7.08a8.63,8.63,0,0,1-.88-1.87l3.53,8.36a76.07,76.07,0,0,1-5-18.85l1.24,9.3a102.34,102.34,0,0,1,.13-23.92l-1.25,9.3a92.52,92.52,0,0,1,5.76-22.7l-3.52,8.35a55.62,55.62,0,0,1,6.72-11.56l-5.47,7.08c1-1.23,2-2.39,3.09-3.53l-15.43,9,.76-.25h-18.6a493.31,493.31,0,0,1,65.89,15.74c17.51,5.34,38.92-6.35,43-24.43,4.31-18.91-5.68-37.33-24.43-43-16.54-5-33.22-9.43-50.17-12.86-4.28-.87-8.58-1.7-12.89-2.42-5.68-1-11-1.85-16.78-1.08-8.14,1.09-15.53,4.3-21.38,10.44-9.12,9.54-14.59,20.09-19.22,32.3-7.84,20.71-8,44-4.57,65.53a71.64,71.64,0,0,0,3,12.08c2.71,7.77,5.68,15.73,11.67,21.63,10,9.8,25.14,12.95,38.35,8.74,11.81-3.76,22.06-10.83,33.36-15.7L687,666a23.58,23.58,0,0,1,5-1.59l-9.3,1.25a7.4,7.4,0,0,1,1.33,0l-9.3-1.25a2.73,2.73,0,0,1,.68.18L667,661.05l.28.16-7.08-5.47.23.21L655,648.86a1.62,1.62,0,0,1,.31.54L651.77,641a2.9,2.9,0,0,1,.15.71l-1.25-9.3a10.24,10.24,0,0,1-.07,1.36l1.25-9.3a25.78,25.78,0,0,1-1.61,5.07l3.53-8.36c-3.38,8-7.95,15.44-11.42,23.41-4.57,10.51-8.68,21.38-5.13,33.07,4.76,15.65,17,24.23,32.25,28.33,23.95,6.46,52.4.67,69.41-18.21,16-17.82,21.58-40,23.82-63.31a170.49,170.49,0,0,0,.5-27.58c-1-15.3-2.62-32.54-13.81-44.08-12.77-13.16-36.83-13.78-49.48,0C686.93,567,686.29,588.29,699.91,602.33Z" transform="translate(-207.25 -205.16)"/><path class="cls-1" d="M763,532.8A429.44,429.44,0,0,0,591.8,492.45c-56.52-1.51-114.22,5.55-168,23.25a403.11,403.11,0,0,0-85,39l17.66-4.78-.85,0,30.21,17.33-.47-.71,4.78,17.66c-.63-7.35-2.24-15.19-1.59-22.55.47-5.29,1.16-10.57,1.54-15.87.88-12.64-6.76-25.92-17.56-32.24-10.42-6.1-25.83-6.75-36.13-.12-7.54,4.87-14.95,12.67-16.67,21.77l9-15.44-.51.64L353,510.16l-.77,0,30.21,17.33-.44-.69,4.78,17.65-1.44-16.84-4.78,17.66.48-.86-12.55,12.55q5.6-2.71,11.21-5.38l-8.36,3.53.35-.08-9.3,1.25,44-1.08-9.3-1.25.64.26-24.44-24.44.25.64-1.25-9.3q-.4,13.48.47,26.94c.61,9.33,3.48,18,10.24,24.74,6.07,6.06,16,10.63,24.74,10.24,19-.85,34.88-15.37,35-35l.14-27-1.25,9.3.25-.6-16.07,20.91.59-.26L408.7,555.1l114.83-2.81,16.37-.4-35-35,.08.86c.88,9.47,3.3,17.8,10.24,24.74,6.07,6.06,16,10.63,24.74,10.24,19-.85,34.88-15.37,35-35v-.86l-35,35L619.3,550l125.88-3.08,29.07-.71-9.3-1.25.65.27-24.44-24.43.24.66-1.25-9.3-4.82,62.13,4.78-17.66-.45.7L769.87,540h-.82l17.65,4.78Q775,538.4,763,532.8c-8.7-4.07-17.38-6.16-26.95-3.53-8.12,2.24-16.91,8.51-20.91,16.08-4.29,8.12-6.44,18-3.53,27,2.66,8.21,8,17.1,16.08,20.9,6.32,3,12.58,6,18.75,9.29,7.21,3.81,14.07,7.32,22.58,7.42a36.14,36.14,0,0,0,35-26.38c1.49-5.4,1.48-12.22,1.92-17.92L809.28,523c.27-3.58.71-7.18.83-10.76.68-20.33-17.47-35.89-36.87-36-5.69,0-11.4.28-17.09.42L590.08,480.7,540,481.92c-19,.47-34.88,15.66-35,35v.86h70l-.08-.86c-.85-9-3.21-18.28-10.24-24.74-6.75-6.19-15.35-10.47-24.74-10.24-43.62,1.06-87.36,1.24-130.95,3.2C389,486,373.5,500.66,372.87,521c-.08,2.43,0,4.87,0,7.3L372.72,548h70c-.6-9-.34-17.94-.47-26.94-.29-20.12-17-35.73-36.86-35.85-7.33-.05-14.68.36-22,.54-6.81.16-13.63.22-20.44.49-10.3.43-20.89,5-29.79,10.26-12.6,7.44-18.62,21.59-17.41,35.72.34,4,.62,8,1,12,.65,6.55,1.84,12.33,5,18.18,5.16,9.54,15.32,15.64,25.77,17,9.68,1.3,18.81-.82,26.61-6.85,6-4.65,11.63-11.29,13.08-19l-9,15.44.56-.67-34,9,.81.11-20.91-16.08.36.8-4.78-17.66c-.59,6.08-1.58,12.24-1.77,18.34-.18,5.45.83,11.11,1.29,16.54.69,8.08,1.27,15.87,5.66,23.14,8.49,14.06,24.71,19.6,40.35,16,5.75-1.31,11.05-5.24,16.14-8.18a367,367,0,0,1,40.51-20.13l-8.36,3.53a420.69,420.69,0,0,1,104.79-28.27l-9.3,1.25c41.63-5.57,84.28-6.49,126-.94l-9.3-1.25a389.74,389.74,0,0,1,97.36,26.57l-8.36-3.53q6.31,2.67,12.52,5.55c8.7,4.07,17.37,6.17,27,3.53,8.11-2.23,16.9-8.51,20.9-16.08,4.29-8.11,6.44-17.95,3.53-26.95C776.45,545.5,771.17,536.6,763,532.8Z" transform="translate(-207.25 -205.16)"/><path class="cls-1" d="M445.63,777.44c.26-.62.51-1.24.75-1.87l-3.52,8.36.15-.26-5.47,7.08.21-.18-15.44,9,.25-.1-9.3,1.25.27,0-9.3-1.25.27.07L396.15,796l.24.17-7.08-5.47a42.94,42.94,0,0,1,4.12,3.85l-9-15.44.09.24-1.25-9.3,0,.25,1.25-9.3-.05.25,3.52-8.36-.12.22,5.47-7.08-.19.18,7.08-5.47-.25.12,8.36-3.53-3.51,1,9.3-1.25-.32,0,9.3,1.25-.29-.08,8.35,3.53-.25-.18,12.55,12.56a12.76,12.76,0,0,1-1.06-2.28l3.53,8.36a4.91,4.91,0,0,1-.4-1.15v18.6l.06-.33a26.49,26.49,0,0,0,.63-14,26.1,26.1,0,0,0-4.15-13,39.14,39.14,0,0,0-20.91-16.07l-9.3-1.25a34.87,34.87,0,0,0-17.66,4.77l-7.08,5.47a35.1,35.1,0,0,0-9,15.44,37.76,37.76,0,0,0-.69,5,26.49,26.49,0,0,0,.63,13.95,8.25,8.25,0,0,0,.4,1.15c1.39,3.37,2.61,6.93,4.32,10.17a1.43,1.43,0,0,0,.27.46l5.47,7.08c3.84,4.19,10.29,7.66,15.69,9.17a31.13,31.13,0,0,0,9.91,1.29c.2,0,9.18-1.22,9.35-1.26a52.92,52.92,0,0,0,11.82-4.56,36.18,36.18,0,0,0,7.42-5.68c5-5,5.21-6.27,7.45-11.57a13.36,13.36,0,0,0,1.82-4.43l1.25-9.3a38.91,38.91,0,0,0-.65-4.9,10.44,10.44,0,0,0-.71-4.89,26.39,26.39,0,0,0-6.27-11.9q-1.39-1.92-2.91-3.75c-.26-.26-.55-.5-.83-.75l-1.81-1.67-1-.91a24.34,24.34,0,0,0-3.87-3,34.13,34.13,0,0,0-3.78-2.9l-8.36-3.53a20.79,20.79,0,0,0-4.92-.7,12.55,12.55,0,0,0-4.92-.6L404,732c-2.88,1.17-5.75,2.37-8.61,3.63l-7.08,5.47a11.45,11.45,0,0,0-2.94,3.72,19.2,19.2,0,0,0-2.89,3.79L378.91,757c-.09.25-.19.5-.29.75s-.3.75-.46,1.12a26.59,26.59,0,0,0-.62,13.95,26,26,0,0,0,4.15,13,39.14,39.14,0,0,0,20.91,16.07l9.3,1.25a34.9,34.9,0,0,0,17.66-4.77l7.08-5.47A35,35,0,0,0,445.63,777.44Z" transform="translate(-207.25 -205.16)"/><path class="cls-1" d="M741.49,639.44l-.68-.08,24.74,10.25-.4-.51,9,34,.1-.68-3.53,8.36c19.52-33.5,20.1-76.39,11.42-113.31v18.6l.26-.84L758,619.69l.87-.18h-18.6q6.31,2.19,12.62,4.43l-20.9-16.08.57.78L727.74,591a204.45,204.45,0,0,1-1.47,34.54l1.25-9.3a187.26,187.26,0,0,1-12.58,46.43l9-15.44-.56.5,15.44-9-6.63,2c-17.52,5.23-30.34,24.79-24.43,43,5.73,17.72,24.25,30,43,24.43,2.16-.64,4.34-1.23,6.48-1.93,8.4-2.76,17.31-8.47,21.61-16.62,2.53-4.78,4.4-10.24,6.3-15.33a180.59,180.59,0,0,0,9.14-34.92c2.25-14.23,3.82-28.53,3.56-43-.15-7.89-.67-16.19-5-23.08-5.53-8.9-13.36-13.88-23-17.4-2.34-.85-4.69-1.65-7-2.47-7.87-2.74-15.21-2.92-23.55-1.24-12,2.42-21,13.31-24.43,24.44-3.29,10.73.56,21.38,2.11,32l-1.25-9.3a160.5,160.5,0,0,1,.32,42.23l1.25-9.3A98.08,98.08,0,0,1,711,655.49l3.53-8.36c-3.94,8.87-9.14,16.49-9.14,26.7a35.73,35.73,0,0,0,10.64,25.25c7.4,7.34,15.46,9.17,25.42,10.33,8.3,1,19.09-4.6,24.74-10.25,6.07-6.06,10.64-16,10.25-24.73-.41-9-3.38-18.43-10.25-24.74l-7.08-5.47A34.78,34.78,0,0,0,741.49,639.44Z" transform="translate(-207.25 -205.16)"/><path class="cls-1" d="M790,625l-.61,0,24.73,10.25-.41-.42L824,659.49l-.05-.61-1.24,9.3.21-.76c2.39-8.28,1.21-19.61-3.52-27a36.28,36.28,0,0,0-16.73-14.31c-7-2.93-15.4-4.15-22.78-1.76-8.31,2.68-16.93,8-20.91,16.07l-1,2.1,5.47-7.08-.53.45,15.44-9-4.57,1.36,9.3-1.25-.61,0,24.74,10.24-.42-.4L817,661.59l-.06-.61-1.25,9.3c.57-2.13,1.15-4.25,1.71-6.37l-3.52,8.35.38-.51-20.91,16.08.63-.11h-18.6c7.25,1.53,14.6,2.45,21.94,3.31l-17.65-4.78.54.27L767.64,674l.22.51-3.52-27-.13.54,16.08-20.9-.49.36,8.36-3.53-7.45,2.22a36.51,36.51,0,0,0-20.91,16.08c-4.38,7.5-6.24,18.55-3.52,27s8,16.63,16.07,20.91,17.82,6.25,27,3.52c2.47-.73,5-1.41,7.42-2.21,8.53-2.79,17.11-8.29,21.42-16.45,5.28-10,6.38-21,1.89-31.68-3.08-7.29-7.75-13.72-15.08-17.51l-8.36-3.52-9.3-1.25c-1.15-.14-2.31-.28-3.46-.44l9.3,1.25c-3.08-.44-6.12-1-9.18-1.61-6.22-1.15-12.38-1.56-18.6,0a34.23,34.23,0,0,0-12.52,6.36,36.85,36.85,0,0,0-12.94,18.75c-.63,2.06-1.21,4.21-1.7,6.31-2.14,9.2-1.25,19.29,3.59,27.56a37,37,0,0,0,21.32,16.49,38.56,38.56,0,0,0,20.93-.48c.71-.21,1.43-.41,2.14-.63a39.63,39.63,0,0,0,12.61-6.48,35.37,35.37,0,0,0,10.57-12.36l-64-27a36.09,36.09,0,0,0,6.1,31.87c3.25,4.21,4.78,6.54,10.23,9.42,6,3.14,11.45,4.33,18.27,4.82,8.56.62,18.83-4.34,24.74-10.24,6.07-6.07,10.64-16,10.25-24.74-.41-9.05-3.38-18.43-10.25-24.74l-7.08-5.47A34.88,34.88,0,0,0,790,625Z" transform="translate(-207.25 -205.16)"/></g><g id="Cor"><g id="Pele"><g id="Base"><path class="cls-2" d="M783.64,644.7s-53,300.86-371.83,119.95c-23,47-98,69-145.93,4s39-103.95,78-103.95c-32-29-61-63-11-154.93,12-43,45-126.94,45-126.94l21-89s87-28,149.93-6,159.92,33,159.92,33,40,44,59,93,39,88,39,88S895.59,619.71,783.64,644.7Z" transform="translate(-207.25 -205.16)"/></g><g id="Sombra"><path class="cls-3" d="M514.9,266.51c-37.68,1.44-72.74,29.57-80,67.08-4.21,21.81-.66,44.2-5.28,66A137.69,137.69,0,0,1,406,452.43C394.6,468,377.76,484.17,357.35,482l11.51,15.11a6.18,6.18,0,0,1,.91-2.08,23.22,23.22,0,0,1,4.25-4c2.83-2.23,6.56-4.74,9.63-7.16a131.59,131.59,0,0,0,17.93-17,152,152,0,0,0,26.69-44.06A140.22,140.22,0,0,0,438,373.38c.24-17.21-2.83-36.65,4.53-52.07,6.89-14.44,19.05-25.37,34-29.93a12,12,0,0,0,8.55-13.1c-.8-5.31-5.75-11-11.73-10.35a89.49,89.49,0,0,0-73.53,57.93c-6.71,18-3.91,36.28-3.94,54.93,0,16.73-5.59,32.33-13.91,46.68-9.78,16.83-22.53,31.57-35.38,46.1L365.3,488c9.33-17.89,19.37-35.6,27.53-54.07,4.1-9.3,7.82-18.78,10.09-28.71a198.39,198.39,0,0,0,3.94-29.94c1.26-17.69,1.15-36.56,8.26-53a68.39,68.39,0,0,1,30.66-33c16.86-9,36.76-9.41,54.55-3.13,6.08,2.15,13.07-2.43,14.69-8.34,1.81-6.59-2.24-12.53-8.34-14.68-38.52-13.62-81.06,1-104.55,33.85-24.45,34.19-12.89,77.35-26.06,115-7.79,22.28-20.51,43.08-31.39,63.95-2.74,5.25-1.8,11.75,3.08,15.4,4.5,3.36,11.67,3.59,15.67-.93,22.47-25.41,46.42-53.17,53.82-87.24a114.22,114.22,0,0,0,2.36-28.09c-.33-9.64-1.44-19.37-.39-29,1.27-11.64,7.59-24.54,16-33.68a65.11,65.11,0,0,1,17.47-13.79,61.12,61.12,0,0,1,20.63-6.86l-3.17-23.45a81,81,0,0,0-42,30.47c-11.46,15.8-14.7,34.64-14.42,53.79.27,18.46.65,35.26-4.66,53A121.06,121.06,0,0,1,366.72,467c-8.82,6.64-17.74,12.48-20.89,23.74-2.26,8.12,4,14.32,11.52,15.11,21.23,2.25,41.08-9.95,55.36-24.62,14.6-15,25.56-33.19,33.15-52.63,7.82-20.07,10.3-41.05,10.5-62.45.1-10.74,0-21.6,2.94-32a59.54,59.54,0,0,1,10.3-20.08c11.37-14.14,28.13-23,45.3-23.69a12.18,12.18,0,0,0,11.94-11.94c0-6.27-5.47-12.18-11.94-11.94Z" transform="translate(-207.25 -205.16)"/><path class="cls-3" d="M373.21,487c-23.11,23.46-36.24,56.95-33.83,90,.67,9.15,2.53,18.15,3.77,27.23.06.4,0,5.76.26,6,0,0,0-.3.38-.14-.09,0,2.42-.58,1.42-.17,2.05-.84.41.53-.34-.4.26.32-.84-1.23-1-1.46-6.92-10.18-8.54-24.67-6.87-36.5a60.76,60.76,0,0,1,19.71-37.09L338,520A99.47,99.47,0,0,0,324,572.4a104.33,104.33,0,0,0,1.48,14.86c.29,1.76.34,5.37,1.31,6.83-.1.42-.11.5,0,.24q1-3.84,6.83-3.21c1.78,1.11,1.88,1,.29-.35l-1-1.15a32.76,32.76,0,0,1-2.62-3.83,44.08,44.08,0,0,1-4.58-9.7c-9.3-28.63,9.52-56.54,38.94-60.74l-9.2-21.82C330.87,512,308,538.41,300,568.77c-4,15.35-3.16,33,5.85,46.48a41.9,41.9,0,0,0,41.95,18.57c6.38-1,9.9-9,8.34-14.68-1.88-6.83-8.29-9.31-14.69-8.34-6.72,1-14.68-5.22-17.68-12.42-4.21-10.11-2-21.66,2-31.58,8.34-20.59,24.05-39.37,41.7-52.65,11.07-8.33,4.43-23.77-9.2-21.82-32.88,4.69-58.33,34.23-59,67.21-.33,16.81,5.54,34.29,16.7,47,7.12,8.09,19.27,11.69,28,3.67,8.27-7.6,6.58-17.72,4.83-27.61-3.07-17.36.85-35.5,9.76-50.56,7.11-12-8.85-23.32-18.75-14.47-26.35,23.55-34.22,63.52-20.13,95.63,4.13,9.42,11,18.06,21.63,19.93,12,2.12,22.78-6.1,25.29-17.85,2.35-11-1.63-22.8-2.92-33.76a92,92,0,0,1,.36-26.09,96,96,0,0,1,26-51.53c10.8-11-6.08-27.86-16.88-16.89Z" transform="translate(-207.25 -205.16)"/><path class="cls-3" d="M377.4,575.77c-12.33-20.91-1.19-46.06,7.71-66,2.62-5.89,1.7-12.83-4.29-16.34-5.09-3-13.69-1.63-16.33,4.29-12.6,28.25-24.95,60.88-7.71,90.11,7.8,13.23,28.45,1.23,20.62-12.05Z" transform="translate(-207.25 -205.16)"/><path class="cls-3" d="M387.07,576.77c8.6,78.16,26.07,162.78,89,216.27a170.66,170.66,0,0,0,53.38,31.12l3.17-23.45c-36.16,2.37-61.25-28.31-79.32-55.52A422.54,422.54,0,0,1,405.38,648a437.71,437.71,0,0,1-15.82-60.36c-2.19-11.68-20.43-11.1-23,0-13.57,58.11,1.57,120.19,39.84,165.85,8.73,10.42,25.93-3.1,18.75-14.47L368.85,650c-5.45-8.63-18.93-7.23-21.82,2.85-6.89,24,1.4,52.07,21.35,67.54,3.49,2.7,7.11,4.31,11.62,3.07,3.67-1,7.7-4.36,8.34-8.34l4.48-27.86-19.95,5.26c8.27,9.93,20.75,24.11,16.12,38.19-3.75,11.42-18.78,17.13-29.46,22.23-12.71,6.08-28.19,11.74-40.36,3.85-3.89-2.53-7.63-7-8.86-11.13-1.48-4.91-.76-10.44,2.42-15.89,8.48-14.54,26.38-19.45,41.42-24A12.19,12.19,0,0,0,362.49,691c-1.86-6.75-8.31-9.41-14.69-8.34a100,100,0,0,0-47.37,22.08c-13.65,11.4-22.48,29.71-14.2,46.94,8,16.6,29,19.06,43.41,9.49,15.62-10.39,18.68-29,20.58-46.23.89-8.09-8.31-13.11-15.12-11.51-9.75,2.28-19.7,5.36-26.84,12.79-8.18,8.51-10.66,20.58-5.52,31.32,10,20.87,37.88,20.36,55,9.36,7.94-5.1,14.81-12.8,16.44-22.36,1.59-9.25-1.44-19.32-8.72-25.49a22.79,22.79,0,0,0-33.9,29.72,23.24,23.24,0,0,0,31.55,6.93c9.7-6.07,13.24-17.44,14.63-28.13.52-4-2.64-8.4-5.92-10.31-4-2.37-8-1.73-12.05,0-17.28,7.35-14.61,33.43,2.81,38.63,7.74,2.31,16-.31,22-5.46s8.72-12.51,11.1-19.73l-23-6.35c-2.23,15.38-5.87,32.14-15.37,44.22-4.29,5.46-10.43,10.28-16.14,12.29a48.38,48.38,0,0,1-5.41,1.55,19.08,19.08,0,0,1-3.78.64,46.13,46.13,0,0,1-10.85-.37c-14-2.74-23.41-11.75-26.52-25.28-2.71-11.8,1.36-25.17,11.54-32.76,13.69-10.23,32.16-12,48.69-13.59,6.42-.59,11.94-5.06,11.94-11.94,0-6-5.48-12.54-11.94-11.94-19.9,1.86-41.24,4.24-58.46,15.3-17.84,11.45-28.34,31.35-26.14,52.67,2.28,22.07,15.59,40.34,36.47,48.24,20,7.59,43.23,3.32,59.68-10.14,18.49-15.14,26-39.76,29.32-62.54.93-6.38-1.58-12.83-8.34-14.69-6.49-1.78-12.66,2.19-14.69,8.34a36.24,36.24,0,0,1-2.21,5.83c-.22.41-2.54,3.62-2.71,3s2.6,0,3.13.62c2,2.15-.17,2.34.15,4.19.05.29-2.77,1.39.8-.13l-18-10.31c.25-1.91-.43,1.58-.52,1.94,0-.09-1.08,3.44-.55,2.13-.49,1.21-1.26,2.22-1.85,3.37.5-.59.49-.6-.05,0s-.55.59.17.08c0,0-2,.8.45.35.84-.15-.56.21-.56-.15,0,.34,1.11.73.57,1.61s-2.11,0-1.28.36c1.73.74-.93-.45-.77-.57s.72.69,1,1.3c-.84-1.73.31,1.3.44,1.71-.54-1.67-.47,1.43.05-.3-.76,2.49-.76,2.68-2.17,4.26-4.72,5.27-18.09,10.5-23.68,4.74-2.14-2.2-1.9-3.74,1.07-6.35,3.88-3.41,10.23-4.42,15.23-5.59L326.34,715c-.95,8.59-2.18,20.62-8.88,25.72a15,15,0,0,1-4.33,2.11l-1.29.32c.8,0,.78-.06-.06,0-.57.06-2.89-.14-1.28.09-2.06-.29-3.35-1.94-3.63-4.23-.43-3.56.92-7.15,3.62-10.64a47.37,47.37,0,0,1,11-9.77,81.17,81.17,0,0,1,32.64-12.84l-6.35-23c-20.63,6.3-41.31,13.87-54,32.39-12.12,17.65-10.21,41.24,5.4,56.11,16.76,16,39.9,15.94,60.38,7.67,17.53-7.09,39.84-16.31,49.21-34,6-11.33,6.27-25,1.9-36.91-4.5-12.34-12.59-22.39-20.91-32.37-5.45-6.54-18.57-3.32-19.95,5.27l-4.49,27.86,20-5.26c-14.07-10.92-19.86-28.1-15.21-44.31L348.24,662l56.27,89.07,18.75-14.46c-32.62-38.93-45.18-93.46-33.7-142.63h-23A448.72,448.72,0,0,0,404,706.85a434,434,0,0,0,28.76,50.39c10.56,15.9,22.12,31.82,36.89,44.09,17.65,14.66,39.67,24.79,63,23.26a12,12,0,0,0,3.18-23.45C469,777.28,435.07,707,421,641.85c-4.64-21.48-7.65-43.25-10.05-65.08-.7-6.41-5-11.94-11.94-11.94-5.91,0-12.65,5.48-11.94,11.94Z" transform="translate(-207.25 -205.16)"/><path class="cls-3" d="M395.74,577.43a479,479,0,0,0,5.84,79.43c2,12.74,4.64,25.32,7.57,37.87,2.28,9.75,5,21-.18,30.27-7.45,13.46,13.17,25.52,20.62,12.06,6.67-12,7-25.25,4.72-38.53-2.28-13.54-6.08-26.82-8.44-40.37a442,442,0,0,1-6.25-80.73c.17-15.37-23.71-15.38-23.88,0Z" transform="translate(-207.25 -205.16)"/><path class="cls-3" d="M412.82,699.68C446.56,769.59,519,815.19,596.52,816a206.79,206.79,0,0,0,68.4-10.89c6.1-2.07,10.12-8.21,8.34-14.68-1.64-5.95-8.56-10.43-14.69-8.34a186.07,186.07,0,0,1-109.75,3.26,182.71,182.71,0,0,1-84.46-52,184.81,184.81,0,0,1-30.92-45.7c-2.81-5.8-11.09-7.35-16.34-4.28-5.93,3.47-7.1,10.51-4.28,16.34Z" transform="translate(-207.25 -205.16)"/></g></g><g id="Olho"><g id="Base-2" data-name="Base"><path class="cls-1" d="M510.87,549.49c-28.34,16.9-25.78,53.3-20.1,81.39C496.69,660.1,522.64,686,554.33,678c30-7.55,36.95-42.56,34.86-69.1a129.34,129.34,0,0,0-10.68-42.54c-2.48-5.69-5.23-11-9.75-15.44-9.2-9.06-23.61-11.38-34.89-4.79-16.49,9.63-16.94,31.35-17.74,48.22-.76,15.88.79,31.7,3.52,47.33,2.16,12.34,17.92,20.39,29.38,16.68,13.28-4.3,19-16.15,16.68-29.37-.22-1.26-.43-2.52-.64-3.78-.09-.52-.48-3.73-.13-.61s0-.11-.06-.63c-.13-1.26-.28-2.53-.4-3.8q-.63-6.68-.76-13.38c-.1-4.46,0-8.93.21-13.39.22-4.22,0-9.3,1.2-13.34-.2.67-1,5.21,0,.66.12-.58.28-1.2.36-1.78s.54-1.24.51-1.77l-.68,1.77q-5.16,15.57-30.29,5.75c-.19-.22-2.24-4.27-1.67-2.27a10.44,10.44,0,0,0,1,1.7c.55,1,1,2.1,1.54,3.14,1.35,2.7.53.39-.32-.88,2,3.05,2.92,8.1,3.84,11.62.45,1.7.85,3.4,1.2,5.12.24,1.14.42,2.3.65,3.44.63,3.26.44,0-.12-1.15,1.39,2.93.67,9,.63,12.24,0,1.75-.08,3.5-.2,5.24-.08,1.17-.2,2.33-.29,3.49-.33,4.12.08-1.16.17-1.14.63.13-2.41,9.09-2.52,9.91,0-.21,2.29-4.28.92-2.42a7.73,7.73,0,0,0-1.07,1.86c.46-3,3.19-3.26,1.11-1.5-2.4,2,.68-.44,1.47-1-3.4,2.37,4.6-1.66-.41,0-2.38.8,2.56-.64,2.69-.41,0-.05-3.23-.05-3-.1.42-.08,4.69,1.18,2.66.19a8,8,0,0,0-2.16-.65c3.08,0,3.9,2,1.64.5-3.13-2,1.29.8,1.21,1.16.07-.29-3.15-3.14-3.66-3.65-1.78-1.76,1.59,1.73,1.46,1.89,0,0-1.72-2.74-1.6-2.53-.74-1.28-1.24-2.79-2-4,2.68,4.06,1.29,3.4.77,1.52-.32-1.16-.73-2.29-1-3.45-.64-2.33-1.07-4.7-1.52-7.06-.71-3.64.79.33.08,1,.26-.23-.35-3.17-.4-3.6-.5-4.93-1-9.89-1.16-14.84,0-1.28-.65-6.69.23-7.52.27-.25-1.1,4.33-.12,1.91a20,20,0,0,0,.8-2.87c.67-3-2.34,4.1-.66,1.58.49-.74,2.4-3.28.1-.71-2.73,3.05-.27.22,0,.13,1.46-1.35,1.39-1.36-.22,0s-1.68,1.3,0,.22c10.73-6.4,15.6-21.77,8.57-32.67s-21.19-15.41-32.67-8.57Z" transform="translate(-207.25 -205.16)"/><path class="cls-1" d="M652.55,555.46c-17.27,25.73-32.16,54-25.85,86,6.2,31.37,36.58,53.63,68.26,47,31.28-6.55,48-38.82,48.94-68.31.47-14.75-1.61-30.91-7.77-44.41C727.82,557.59,705.66,549,687.79,559c-15.06,8.43-23,26.11-26,42.44-3.19,17.15-2.73,34.82,3,51.42,4,11.8,16.58,20.82,29.37,16.68,11.7-3.78,21-16.72,16.68-29.37-.74-2.16-1.42-4.33-2-6.54-.4-1.61-1.82-5.11-1.36-6.69-.74,2.55.4,4.07.24,1.26-.07-1.13-.17-2.27-.22-3.41a78.32,78.32,0,0,1,.13-8.53,19.6,19.6,0,0,0,.32-3.41c0,.18-.87,4.72-.24,2.13.54-2.22.88-4.46,1.48-6.67s1.43-4.32,2.09-6.5c.93-3.1-1.92,3.66-.5,1.1.58-1.06,1.19-2.15,1.73-3.23,1.69-3.45-.38.87-1.14,1.22-.21.1,2-1.95,2-2.07.12,1.4-4.77,3-5.9,3.29,3.73-1.1-2.12.27-2.44.28a14.65,14.65,0,0,1-7.34-1.75c-4-2.22-3.72-3-2.18-1.39-3.49-3.63-2.79-3.47-1.66-1.76.82,1.69.77,1.53-.14-.5s-.94-2.2-.29-.4c.38,1.68.91,3.33,1.25,5,.3,1.47.25,6,1.21,7-.34-.39-.55-5.72-.19-1,.1,1.19.23,2.37.31,3.57q.25,3.56.23,7.13c0,1.75.49,5.59-.38,7.08,1.46-2.52.66-3.7.09-1.11-.25,1.14-.46,2.3-.75,3.44s-1.08,6.1-2.17,6.72c.44-.25,2.33-4.74.59-1.75-.74,1.27-1.47,2.52-2.23,3.77-1.64,2.73-.54-1,1.14-1.29a17,17,0,0,0-1.92,2.21c-1.3,1.39-3,2.53-4.25,4,.47-.56,4.63-2.95,1.33-1.21-.82.44-1.67,1-2.47,1.45-2.51,1.51-.63-1,1.84-.64-.85-.13-2.53.86-3.36,1.07-5.49,1.42,5.07,0-.65.09s3.81,1.24,0,.18c-.89-.25-1.82-.54-2.73-.76-3.72-.91,1.34.33,1.78.8a17.6,17.6,0,0,0-2.49-1.36,21.15,21.15,0,0,1-1.79-1.17q-2.21-1.54,2,1.56a28,28,0,0,0-4.08-4.06c.47.24,3.15,4.77,1.08,1.39-.51-.82-1.06-1.61-1.55-2.45a15.28,15.28,0,0,0-1.36-2.55c.42.39,1.81,5.5.74,1.72-.32-1.12-.73-2.2-1-3.33-.22-.81-1.74-5.53-.59-1.93,1,3.18,0,0,0-1.14q-.14-2.18-.09-4.35c0-1.17.13-2.32.18-3.49.24-5.72-1.23,5,.12-.61.62-2.57,1.16-5.14,1.95-7.67.35-1.12.72-2.23,1.12-3.33.46-1.28,1.32-5.33,0-.19,1.3-5,5.05-10.16,7.68-14.51,3.16-5.23,6.56-10.3,10-15.37,7-10.4,2.35-26.91-8.57-32.68-12-6.36-25.22-2.52-32.67,8.57Z" transform="translate(-207.25 -205.16)"/></g><g id="Sombra-2" data-name="Sombra"><path class="cls-4" d="M514.42,552.37C504.31,563,501.63,579,500.56,593a112.42,112.42,0,0,0,6.64,47.45c5.09,13.6,13.27,25.59,27,31.54,14.52,6.3,30.74,4.81,45.26-.69l-3.86-9.14a46.47,46.47,0,0,1-66.4-22.8c-5.35-12.92-5.8-27.19-4.25-40.93,1.57-14,3.95-29.91,11.95-41.79,3.2-4.75-3.93-10.06-7.85-6-16.6,16.94-25.92,40.83-24.08,64.61a84.21,84.21,0,0,0,31.89,59.53c4.92,3.84,11.91-2.56,7.07-7.06-14.62-13.63-26.25-29.92-24.79-50.79.75-10.69,3.9-21.37,7.15-31.53a226.28,226.28,0,0,1,12.9-31.69c2.85-5.74-5.77-10.81-8.63-5C500,570,490,594.69,489,618.77c-1,22.61,11.93,41.17,27.82,56l7.07-7.06c-16.26-12.68-27.37-31.74-29-52.47a74.48,74.48,0,0,1,21.16-57.55l-7.85-6c-9.32,13.82-11.93,32.44-13.51,48.7-1.58,16.06,0,32.63,7.24,47.23,14.45,29.05,50.75,39.39,78.65,23.26,4.75-2.74,1.58-11.19-3.85-9.13-12.46,4.73-26.52,6.71-39,1-11.73-5.31-18.09-16.4-22-28.15a105.49,105.49,0,0,1-5.25-39.74c.68-11.72,2.57-26.53,11.05-35.39,4.44-4.65-2.61-11.73-7.07-7.07Z" transform="translate(-207.25 -205.16)"/><path class="cls-4" d="M663,552c-20.84,22.37-23.8,58.15-14.21,86.24,4.83,14.14,14,27.46,27.59,34.39,15.24,7.79,32.55,5.85,48.5,1.52l-2.65-9.64c-15,5-31.93,7.51-46.67.24-12.42-6.13-21.83-17.28-26.82-30.1-10.47-26.89-5.65-62.79,16-82.95l-7.07-7.07c-22.2,27-30.06,64-20.14,97.62,1.54,5.25,10.11,4.47,9.81-1.33L646.21,619l-9.82,1.32L640.87,635l9.64-2.66a77.45,77.45,0,0,1,9.21-69.47c3.64-5.32-5-10.33-8.63-5.05A87,87,0,0,0,640.87,635c2.1,6,11.54,3.56,9.64-2.66L646,617.71c-1.59-5.21-10.11-4.5-9.82,1.33L637.32,641l9.81-1.33c-8.84-30-2.35-63.64,17.58-87.89,4-4.9-2.28-11.54-7.07-7.07-25,23.28-30.41,65-17.32,95.73,6.13,14.37,17.18,27,31.51,33.65,16.92,7.83,35.8,5.92,53,.14,6-2,3.61-11.33-2.65-9.64-13.71,3.72-29.15,6.05-42.15-1.23-11.7-6.54-19-18.46-22.71-31.06-7-24-5-54.14,12.7-73.15,4.38-4.7-2.67-11.79-7.07-7.07Z" transform="translate(-207.25 -205.16)"/></g></g></g><g id="Traço"><path d="M837.58,555a86,86,0,0,0-8.46-33.29c-.67-1.39-1.43-2.76-2.2-4.13-.38-.69-.82-1.36-1.23-2l-.64-1-.79-1.14a41.29,41.29,0,0,0-7.61-8.18c-5.79-4.72-11.91-7.43-17-9.84l-3.72-1.76-3.67-1.82-7.9-3.93c-5.28-2.68-10.78-5.23-16.31-7.87s-11.27-5.15-17.06-7.73l-4.58-1.95c-4.36-1.85-8.75-3.73-13.3-5.44-11.81-4.67-24.23-9-37.14-12.73a343,343,0,0,0-42.64-9.52c-28.59-4.62-58.67-5.33-88.77-3.43-15,.87-29.82,2.39-44.41,4.26s-28.91,4.58-42.89,7.67c-8.49,1.94-16.81,4.13-25,6.48q-7.9,2.26-15.63,4.72l-1.95.67q-11,3.72-21.52,7.77c-2.13.82-4.26,1.64-6.35,2.48-2.65,1.06-5.28,2.14-7.87,3.23q-18.06,7.66-34.58,16c-5.5,2.75-10.91,5.49-16.14,8.32s-10.37,5.41-15.82,8.76a67.78,67.78,0,0,0-15.63,12.63,47.32,47.32,0,0,0-10,18.28,71.23,71.23,0,0,0-2.66,18c-.1,2.82-.07,5.53,0,8.15.1,2.42.19,4.82.28,7.18.21,9.07-.35,18.62.61,28.23a64.76,64.76,0,0,0,2.93,14.35,39.78,39.78,0,0,0,7.07,13,23.83,23.83,0,0,0,2.75,3,26.59,26.59,0,0,0,3.15,2.43,30.44,30.44,0,0,0,6.33,3.17,47.8,47.8,0,0,0,11.66,2.67,77.47,77.47,0,0,0,13.52.23,202.42,202.42,0,0,0,4.05,25.33,110.68,110.68,0,0,0-31.94,4.06c-1.7.51-3.44,1-5.16,1.56l-5.15,2-2.61,1-2.55,1.3-5.14,2.67a119.17,119.17,0,0,0-18.76,13.35,83.44,83.44,0,0,0-16.59,19.53,59.85,59.85,0,0,0-8.74,27.54A56.64,56.64,0,0,0,261,754.5a63.52,63.52,0,0,0,2.17,7.36c.45,1.19.89,2.4,1.37,3.58l1.65,3.42a70.25,70.25,0,0,0,19,23.16,72.37,72.37,0,0,0,26.66,13.44,74.51,74.51,0,0,0,28.72,1.15,93.46,93.46,0,0,0,25.19-7.45A96.4,96.4,0,0,0,387.09,786c1.59-1.32,3.17-2.63,4.65-4.1L394,779.8c.69-.71,1.31-1.43,2-2.14,2.59-2.95,4.94-5.37,7.35-8.6a94.89,94.89,0,0,0,5.58-8.19,204.28,204.28,0,0,0,53.25,38.94,221.29,221.29,0,0,0,82.1,23,231.14,231.14,0,0,0,43.75-.63l11-1.6c1.82-.3,3.67-.49,5.48-.88l5.43-1.21c3.61-.84,7.26-1.56,10.85-2.53l10.68-3.24c3.6-1,7-2.38,10.5-3.71s7-2.56,10.33-4.09c6.67-3.17,13.47-6,19.78-9.8,13-6.87,24.86-15.4,36.18-24.35,5.44-4.77,11.08-9.27,16-14.48,2.53-2.56,5.15-5,7.56-7.64l7.06-8.06c1.15-1.36,2.39-2.64,3.46-4.07l3.23-4.25c2.13-2.84,4.31-5.64,6.38-8.51s3.85-5.94,5.78-8.9l2.86-4.44,2.54-4.63,5.05-9.25c1.52-3.15,2.91-6.37,4.36-9.55,3.08-6.27,5.11-13,7.52-19.45a45.73,45.73,0,0,0,1.52-5l1.35-5,1.34-5a48.71,48.71,0,0,0,1.18-5l1.86-10.08c.15-.9.32-1.79.49-2.69a68.5,68.5,0,0,0,8.72,1.29c1.5.1,3.11.09,4.74.12a42.15,42.15,0,0,0,5.27-.63,29,29,0,0,0,11.14-4.76,35.33,35.33,0,0,0,4.74-4.32l2.12-2.44,1.79-2.59a61.41,61.41,0,0,0,5.84-11.28c3.3-8.08,4.82-17.53,5.17-26.73.21-4.61.22-9.2.27-13.75,0-2.24.07-4.52.1-6.82,0-1.25,0-2.51,0-3.78S837.64,556.39,837.58,555ZM738.66,691.91l-2.23,4-2.55,3.86-5.08,7.75C727,710,725,712.48,723.15,715l-2.84,3.72c-.94,1.24-2,2.35-3.07,3.54L711,729.28c-2.13,2.31-4.47,4.44-6.69,6.68-4.36,4.58-9.38,8.5-14.17,12.7-10,7.83-20.49,15.36-31.94,21.36-5.55,3.32-11.54,5.8-17.39,8.6-3,1.35-6.05,2.37-9.06,3.57a91.31,91.31,0,0,1-9.2,3.25l-9.33,2.85c-3.13.84-6.31,1.45-9.46,2.19l-4.72,1.08c-1.57.35-3.18.49-4.76.75l-9.52,1.42a204.34,204.34,0,0,1-38.29.65,195,195,0,0,1-71.75-19.64,179,179,0,0,1-53.71-41c-.88-1-1.79-1.94-2.65-2.94a167.91,167.91,0,0,1-13.25-17.62,157.05,157.05,0,0,1-11.64,26.2c-.45.78-.93,1.54-1.4,2.31a82.09,82.09,0,0,1-8.35,11.48c-1.7,2-4.22,4.37-6.29,6.46-.54.53-1.08,1.1-1.61,1.59l-1.62,1.37c-1,.95-2.22,1.8-3.39,2.67a74.15,74.15,0,0,1-34,13.55,48.42,48.42,0,0,1-17.73-.91,45.8,45.8,0,0,1-16-8.25c-9.74-7.76-15.74-19.12-15.2-29.11.17-10.26,6.47-20.63,15.17-29a101.76,101.76,0,0,1,14.14-11.35l3.55-2.15,1.75-1.09,1.87-.89,3.7-1.81c1.24-.56,2.56-1,3.82-1.48a103.94,103.94,0,0,1,30.37-6.17l.26,0a160.38,160.38,0,0,1,27,.82c.58,0,1.11.14,1.68.2A166.47,166.47,0,0,1,385,671.1c-.17-.53-.3-1.06-.45-1.59a177.43,177.43,0,0,1-6.62-33.62q-.36-3.63-.59-7.26a189.43,189.43,0,0,1,0-22.73c.25-4.73.72-9.4,1.32-14,6.48-2.35,13.52-4.84,21.12-7.38,10.49-3.6,22.14-7,34.63-10.45,12.58-3.18,26-6.54,40.34-9,28.59-5.29,60.51-8.36,94.29-9,16.83-.28,33.19,0,48.93,1.09s30.79,3.06,45.07,5.45c14.25,2.54,27.71,5.6,40.25,8.88,12.49,3.43,24.13,6.87,34.66,10.44,9.05,3,17.3,5.89,24.78,8.55C764.39,624.75,757.15,660.46,738.66,691.91Zm78.29-87a49.18,49.18,0,0,1-3.43,8.84q-.49,1-1,1.92l-1.12,1.61a21.45,21.45,0,0,1-2.33,2.82c-3.28,3-7.71,4.46-12.61,4.79a69.86,69.86,0,0,1-7.61.19q.39-3.9.8-7.79c.16-3.35.2-6.7.31-10,.13-2.43.13-4.85.08-7.26,10.81,3.59,17.17,4.92,18,3.24s-4.42-6.66-15.05-13.9c-1.11-.74-2.32-1.53-3.55-2.33-7.49-4.85-17.11-10.51-28.8-16.51q-7.16-3.69-15.31-7.5c-10.46-4.92-22.25-9.68-35.12-14.31a404,404,0,0,0-42.1-12.06,416.49,416.49,0,0,0-47.91-7.54,474.5,474.5,0,0,0-51.84-1.76c-35.3.72-69.09,4.79-99.09,11.86a410,410,0,0,0-42,12.14c-12.86,4.65-24.68,9.36-35.13,14.34-3.33,1.56-6.48,3.1-9.55,4.64-11.18,5.6-20.69,11-28.41,15.92-3.55,2.24-6.75,4.38-9.54,6.35-10.5,7.5-15.67,12.61-14.71,14.3s8-.06,19.87-4.42c.8-.28,1.68-.61,2.52-.92-.08.88-.19,1.75-.25,2.62a212.51,212.51,0,0,0-.49,24.52,74.89,74.89,0,0,1-10.5-1.65c-5.64-1.32-11.46-3.82-13.38-7.43-3.16-4.61-4.45-11.06-4.59-18.81s1-16.61,1.46-26.84c.07-2.46.13-5,.2-7.48.07-2.31.2-4.6.41-6.83a51,51,0,0,1,2.55-12.49,24.84,24.84,0,0,1,5.86-9.46A46.45,46.45,0,0,1,344.47,530c4.33-2.42,9.6-4.86,14.81-7.36s10.53-5,15.94-7.45c1.36-.63,2.75-1.24,4.13-1.85q6-2.69,12.07-5.28c1.36-.58,2.74-1.14,4.11-1.71,4.4-1.83,8.83-3.63,13.34-5.39,2.08-.82,4.19-1.6,6.3-2.39q14.47-5.42,29.73-10.14c12.43-3.7,25.22-7.06,38.39-9.88s26.72-5,40.58-6.83,28-3.08,42.47-3.92,28.44-1.33,42.27-.82a339,339,0,0,1,40.54,3.4c26.37,3.73,51.27,10.72,74.65,19.21,2.49.85,4.94,1.78,7.38,2.72,3.32,1.27,6.62,2.56,9.89,3.8,5.65,2.31,11.24,4.55,16.72,6.89l10.91,4.73c1.76.77,3.53,1.53,5.26,2.32l7.89,3.52L786,515.4l4.09,1.72c5.28,2.15,9.49,4,12.32,6.1a18.49,18.49,0,0,1,3.67,3.49l.39.48.46.66c.3.45.63.88.92,1.34.58.91,1.16,1.83,1.69,2.79a67.12,67.12,0,0,1,7.85,24.67c.12,1,.23,2.08.3,3.11s.12,2.23.18,3.33c.14,2.41.27,4.79.41,7.14.3,4.63.62,9,.77,13.07C819.36,591.48,818.81,598.53,817,604.93Z" transform="translate(-207.25 -205.16)"/><path d="M544.68,271.24c12.32,4,24,8.45,35.37,12.65s22.31,8.18,33.08,11.42c5.39,1.65,10.68,3,16.11,4.32s10.93,2.47,16.46,3.67c11.07,2.36,22.3,4.81,33.35,8.14,1.38.42,2.76.89,4.13,1.32s2.75.89,4.11,1.4l4.08,1.49,4,1.65,2,.83,2,.92,3.93,1.85,3.84,2,1.91,1,1.85,1.12,3.69,2.26,3.53,2.45,1.75,1.22c.58.42,1.12.87,1.68,1.31l3.3,2.61a119.53,119.53,0,0,1,11.75,11.35,134.75,134.75,0,0,1,9.75,12.09c1.42,2.08,2.85,4.13,4.16,6.21s2.62,4.13,3.76,6.23A184.46,184.46,0,0,1,766,395.39a239.07,239.07,0,0,1,7.63,23c2,7.31,3.68,14.2,5.1,20.64,2.82,12.87,4.81,23.89,6.44,32.9,3.19,18,4.87,28,3,28.7S781,492.31,774.4,475c-3.31-8.64-6.9-19.34-11.12-31.53s-9.09-25.92-15.88-39.94a181.33,181.33,0,0,0-11.95-21.07c-1.1-1.77-2.37-3.42-3.58-5.16s-2.55-3.35-3.85-5a117.06,117.06,0,0,0-8.62-9.54,99.57,99.57,0,0,0-9.83-8.57c-.88-.64-1.78-1.27-2.67-1.91-.45-.32-.89-.66-1.35-1l-1.39-.87-2.81-1.77L698.42,347l-1.47-.81-1.55-.74-3.08-1.49-3.23-1.35-1.62-.69-1.67-.61L682.43,340,679,338.92c-1.16-.39-2.35-.74-3.56-1.07s-2.39-.7-3.61-1c-9.8-2.6-20.34-4.6-31.51-6.7-5.58-1.07-11.3-2.14-17.17-3.43s-11.9-2.72-17.82-4.43c-23.77-6.71-46.51-16.32-69.45-23.76A243.23,243.23,0,0,0,502,289.83a157.89,157.89,0,0,0-16.43-2,117.27,117.27,0,0,0-15.91,0c-1.3.09-2.6.16-3.87.34s-2.56.25-3.82.47l-3.76.6c-1.21.27-2.43.47-3.62.77a72.22,72.22,0,0,0-13.62,4.6,56.2,56.2,0,0,0-11.45,6.94,41.59,41.59,0,0,0-8.32,9A46.66,46.66,0,0,0,416,321.73c-.31,1-.61,2.07-.91,3.1s-.49,2.18-.73,3.26-.4,2.24-.62,3.34l-.29,1.68-.22,1.74c-.65,4.59-1,9.41-1.35,14.29s-.63,9.86-1.08,14.88-1.08,10.12-2,15.17A106,106,0,0,1,405,394a148.41,148.41,0,0,1-11.66,25c-4.28,7.41-8.62,14.08-12.66,20.25s-7.8,11.86-11,17.23a150.58,150.58,0,0,0-13.9,28.56A105.17,105.17,0,0,0,351,504.55c-.16,1.16-.36,2.2-.52,3.1A22.92,22.92,0,0,1,350,510c-.33,1.26-.74,2-1.23,2.05s-1-.48-1.68-1.67a20,20,0,0,1-1-2.27c-.32-.93-.6-2-.91-3.26a60.68,60.68,0,0,1-.33-22.34,102.92,102.92,0,0,1,3.69-15.72,160.29,160.29,0,0,1,6.87-17.68c5.58-12.35,13.17-25.27,19.94-39.44a137.43,137.43,0,0,0,8.49-22.21,87.77,87.77,0,0,0,2.33-11.83c.48-4.14.82-8.45.95-13.07s.2-9.39.31-14.47.25-10.36.79-16l.18-2.1.27-2.14c.21-1.45.32-2.86.62-4.34l.81-4.43c.37-1.5.74-3,1.12-4.52a72.11,72.11,0,0,1,7.69-18.1A67.15,67.15,0,0,1,412.3,280.9a81.84,81.84,0,0,1,16.93-11A98.46,98.46,0,0,1,448,263.09c1.61-.44,3.24-.76,4.87-1.14l4.84-.88c1.62-.3,3.26-.46,4.89-.7s3.27-.37,4.91-.51a142.81,142.81,0,0,1,19.73-.31,182.8,182.8,0,0,1,19.56,2.17A259.58,259.58,0,0,1,544.68,271.24Z" transform="translate(-207.25 -205.16)"/><path d="M513.35,695.34A75.14,75.14,0,0,1,491,678.18a83.55,83.55,0,0,1-14.29-22.49c-6.94-16.11-8.35-32.75-7.07-47.71a120.78,120.78,0,0,1,3.84-21.5,95.7,95.7,0,0,1,7.67-19.68,68.87,68.87,0,0,1,12.16-16.58,63.47,63.47,0,0,1,15.3-11.17,81.74,81.74,0,0,1,29.25-8.57,109.83,109.83,0,0,1,21.79-.07c11.67,1.18,17.87,3.15,17.93,5.08s-6.32,3.83-17.34,6c-5.48,1.17-12.11,2.48-19.29,4.66A77.22,77.22,0,0,0,519,556.44a46.26,46.26,0,0,0-16.49,20.76A78.45,78.45,0,0,0,498,592.38a105.26,105.26,0,0,0-2,17.25c-.37,11.73,1.37,24,6.37,34.65a58.18,58.18,0,0,0,9.8,14.79A48.72,48.72,0,0,0,526,669.65a39.92,39.92,0,0,0,16.11,4,37.06,37.06,0,0,0,15.56-2.81c9.13-3.79,15.65-12.28,19.4-22.75s5.13-22.25,5.6-33.42,0-21.5-1.72-30.39A80.22,80.22,0,0,0,577.62,572a60.1,60.1,0,0,0-16.42-24.22c-7.68-6.77-13.77-8.86-13.4-11,.14-.93,1.88-1.73,5.21-1.79a33.71,33.71,0,0,1,14.1,3.34,55.91,55.91,0,0,1,18.51,13.93,66.75,66.75,0,0,1,8.49,12,86.14,86.14,0,0,1,6.46,14.89c3.54,10.75,5.32,22.86,5.9,35.43a156.43,156.43,0,0,1-.26,20,102.62,102.62,0,0,1-4,21.87,70,70,0,0,1-11.24,22.52l-2.1,2.67-2.34,2.52a60.79,60.79,0,0,1-5.1,4.76,57.93,57.93,0,0,1-12.14,7.59A65.44,65.44,0,0,1,513.35,695.34Z" transform="translate(-207.25 -205.16)"/><path d="M746.23,579.11c-.69-2.09-1.46-4.12-2.27-6.1a125,125,0,0,1-21-1.87c.11.29.25.55.36.85a80.22,80.22,0,0,1,3.37,12.32c1.7,8.89,2.17,19.1,1.72,30.39s-1.75,22.95-5.6,33.42-10.27,19-19.4,22.75a37.06,37.06,0,0,1-15.56,2.81,40,40,0,0,1-16.11-4,48.72,48.72,0,0,1-13.88-10.58,58.18,58.18,0,0,1-9.8-14.79c-5-10.69-6.74-22.92-6.37-34.65a106.37,106.37,0,0,1,2-17.25,79.16,79.16,0,0,1,4.55-15.18,46.32,46.32,0,0,1,16.49-20.76c1.33-.93,2.69-1.78,4.07-2.59-8-3.12-15.94-6.12-24.13-8.54a56.93,56.93,0,0,0-5.64,4.91,69.14,69.14,0,0,0-12.16,16.58,95.7,95.7,0,0,0-7.67,19.68A120.78,120.78,0,0,0,615.3,608c-1.27,15,.13,31.6,7.07,47.71a83.55,83.55,0,0,0,14.29,22.49A75.14,75.14,0,0,0,659,695.34a65.44,65.44,0,0,0,55.91,1.11,57.93,57.93,0,0,0,12.14-7.59,60.79,60.79,0,0,0,5.1-4.76l2.34-2.52,2.1-2.67a70,70,0,0,0,11.24-22.52,102.62,102.62,0,0,0,4-21.87,156.43,156.43,0,0,0,.26-20C751.55,602,749.78,589.86,746.23,579.11Z" transform="translate(-207.25 -205.16)"/><path d="M328.36,712.49A51.2,51.2,0,0,1,347.91,705a50,50,0,0,1,9-.6,45.83,45.83,0,0,1,7.77.9,30,30,0,0,1,10.44,4.07c2.23,1.52,3.17,2.89,2.84,3.8-.72,2-6.12,1.5-14,2.24-2,.17-4.08.47-6.32.84a70.54,70.54,0,0,0-7,1.65,53.6,53.6,0,0,0-26.53,17.18,69.66,69.66,0,0,0-4.35,5.7c-1.25,1.89-2.4,3.7-3.35,5.42-3.89,6.87-5.68,12-7.76,11.84-1-.07-1.83-1.49-2.31-4.14a29.63,29.63,0,0,1,.56-11.19,45.83,45.83,0,0,1,2.34-7.46,50.21,50.21,0,0,1,4.25-8A51.17,51.17,0,0,1,328.36,712.49Z" transform="translate(-207.25 -205.16)"/><path d="M602.07,655.82s-10.86,34.77-24.3,48.34a1.28,1.28,0,0,1-2.17-1.08c.93-8.59,12.42-25.28,14.54-40.09" transform="translate(-207.25 -205.16)"/><path d="M616.19,634.37s8.57,44.14,26.52,61.94a1.57,1.57,0,0,0,2.72-1.4c-2.73-9.95-13.89-22.58-15.89-42.67" transform="translate(-207.25 -205.16)"/><ellipse cx="609.78" cy="494.84" rx="7.16" ry="21.69" transform="translate(-210.26 -201.43) rotate(-0.35)"/><ellipse cx="678.78" cy="506.8" rx="7.16" ry="19.33" transform="translate(-234.05 -167.13) rotate(-3.15)"/><path d="M738.7,523.05c.65,10.87-2,19.88-6,20.11s-7.68-8.38-8.33-19.26,2-19.88,6-20.11S738.06,512.17,738.7,523.05Z" transform="translate(-207.25 -205.16)"/><path d="M788.33,546.89a36.94,36.94,0,0,1-1.13,14.63c-1.2,3.74-3,6-5,6s-3.74-2.23-5.13-5.68a52.56,52.56,0,0,1-3-13.38,52,52,0,0,1,.1-13.71c.62-3.66,1.87-6.19,3.81-6.63s4.18,1.36,6.14,4.76A36.88,36.88,0,0,1,788.33,546.89Z" transform="translate(-207.25 -205.16)"/><path d="M546.13,498.11a51.43,51.43,0,0,1-1.62,13.53c-1,3.55-2.56,5.91-4.53,6.13s-4-1.81-5.57-5.38a39.71,39.71,0,0,1,.14-28.68c1.61-3.55,3.67-5.55,5.63-5.32s3.47,2.62,4.46,6.18A51.22,51.22,0,0,1,546.13,498.11Z" transform="translate(-207.25 -205.16)"/><ellipse cx="469.19" cy="509.97" rx="19.69" ry="7.16" transform="translate(-259.96 760.69) rotate(-88.52)"/><path d="M414.24,528.54a46.6,46.6,0,0,1-1.81,13.52c-1.13,3.52-2.75,5.81-4.73,6s-3.92-1.93-5.39-5.47a41.28,41.28,0,0,1,.16-28.13c1.5-3.52,3.48-5.57,5.45-5.4s3.57,2.47,4.66,6A46.83,46.83,0,0,1,414.24,528.54Z" transform="translate(-207.25 -205.16)"/><path d="M359.31,554.13a74.8,74.8,0,0,1-2.4,13.78c-1.11,3.64-2.59,6.12-4.57,6.35s-4-1.92-5.55-5.83a38.28,38.28,0,0,1,3-30.73c2.23-3.55,4.7-5.26,6.57-4.66s2.87,3.32,3.26,7.1A74.73,74.73,0,0,1,359.31,554.13Z" transform="translate(-207.25 -205.16)"/><path d="M541.92,250.13c13.52,5.46,26.52,11.19,39.42,16.07,6.46,2.45,12.86,4.66,19.3,6.56s13,3.57,19.49,5.07c26.11,6,52.45,9.89,76.92,18.11a177.45,177.45,0,0,1,34.55,15.42,126.19,126.19,0,0,1,15.09,10.49c1.16,1,2.37,1.89,3.47,2.91l3.33,3c2.12,2.12,4.26,4.18,6.16,6.43a122.79,122.79,0,0,1,18.45,28.12,190.65,190.65,0,0,1,10.77,28.55c5.37,18.56,8.16,35.6,10.85,50.34s5.09,27.35,7.68,37.5,5.06,17.89,6.84,23.13c.85,2.64,1.59,4.62,2,6s.49,2.16.27,2.27-.76-.44-1.59-1.63a48.78,48.78,0,0,1-3.3-5.5,148.21,148.21,0,0,1-9.55-22.71c-3.48-10.12-6.77-22.79-10.17-37.45s-6.91-31.33-12.69-48.95a187.05,187.05,0,0,0-11-26.61,113.22,113.22,0,0,0-17.37-25.09c-1.73-2-3.68-3.75-5.59-5.6l-3-2.63c-1-.9-2.11-1.69-3.16-2.54a117.09,117.09,0,0,0-13.81-9.2A168.56,168.56,0,0,0,693,308.49a346,346,0,0,0-36.54-9c-12.72-2.58-25.92-4.93-39.4-7.93-6.74-1.5-13.54-3.18-20.37-5.17s-13.64-4.29-20.33-6.81c-13.4-5-26.51-10.78-39.75-16.12s-26.32-10.12-39.43-13.05A109.25,109.25,0,0,0,458.45,248,87.09,87.09,0,0,0,424,260.82l-1.92,1.23-1,.62-.92.67L416.53,266c-2.31,1.94-4.67,3.79-6.77,5.91-1.09,1-2.18,2-3.16,3.14s-2,2.15-3,3.26l-2.78,3.42-.69.85-.63.89-1.26,1.78L397,287.05c-.42.59-.77,1.22-1.15,1.83-.74,1.24-1.53,2.44-2.23,3.69l-2,3.79-.49.94-.43,1-.84,1.94a93.56,93.56,0,0,0-5.31,16.06c-2.69,11-4,22.24-5.34,33.28s-2.79,22-5.46,32.4l-.48,2-.57,1.93c-.38,1.28-.75,2.56-1.13,3.82-.85,2.51-1.7,5-2.66,7.38-1.9,4.78-4,9.34-6.19,13.65-4.4,8.64-9.08,16.44-13.43,23.76s-8.42,14.14-11.83,20.67c-6.84,13-11,25-12.81,35.07a75,75,0,0,0-.79,23.53c.21,1.34.38,2.54.51,3.58s.36,1.88.46,2.59c.21,1.41.22,2.19,0,2.28s-.69-.52-1.37-1.82c-.33-.65-.76-1.46-1.17-2.46s-.78-2.2-1.24-3.56c-1.68-5.45-3-14-1.9-24.92s4.68-23.88,11.14-37.83c3.21-7,7-14.13,11.09-21.64s8.35-15.32,12.25-23.68c1.95-4.18,3.76-8.5,5.37-13,.83-2.23,1.52-4.51,2.23-6.81l.93-3.52.46-1.77.4-1.81c2.19-9.66,3.31-20.11,4.41-31.14s2.16-22.74,4.87-34.85A106.58,106.58,0,0,1,378,295.2l1-2.27.48-1.14.55-1.1,2.22-4.42c.79-1.45,1.67-2.86,2.51-4.3.43-.71.83-1.44,1.3-2.13l1.41-2.07,1.43-2.07.72-1,.77-1,3.14-4c1.1-1.29,2.26-2.53,3.39-3.79s2.35-2.47,3.58-3.66c2.39-2.46,5.06-4.63,7.69-6.88l4.17-3.12,1-.79,1.09-.72,2.2-1.44a100,100,0,0,1,39.93-15.16c14.47-2,29.44-.92,43.73,2.32S528.39,244.71,541.92,250.13Z" transform="translate(-207.25 -205.16)"/><path d="M294.26,580.3c1.58,9.65,1.59,18.64,2.14,26.82.27,4.1.63,8,1.24,11.67A52.07,52.07,0,0,0,300.39,629a44.1,44.1,0,0,0,2.05,4.45,36.62,36.62,0,0,0,2.58,4,40.81,40.81,0,0,0,6.39,6.79,60.78,60.78,0,0,0,14.95,9.16,108.49,108.49,0,0,0,14.36,4.95c4.4,1.23,8.29,2.15,11.48,3,6.4,1.62,10,2.89,9.85,3.89s-3.81,1.58-10.53,1.64a106,106,0,0,1-12.3-.64,86.59,86.59,0,0,1-16.36-3.32,64.39,64.39,0,0,1-18.79-9.31,50.58,50.58,0,0,1-8.89-8.28,48.14,48.14,0,0,1-3.85-5.24,54.84,54.84,0,0,1-3.09-5.89,62.09,62.09,0,0,1-4.05-12.78,118.38,118.38,0,0,1-1.78-13.14c-.77-8.74-.93-17.4-2.29-25.55S276,566.12,274.52,557a54.51,54.51,0,0,1-.61-14.21,37.25,37.25,0,0,1,4.21-13.88,43.61,43.61,0,0,1,8.14-10.52,75,75,0,0,1,9.1-7.33c3-2.09,5.94-3.89,8.71-5.58l7.94-4.78c20.32-12.1,33.44-18.76,34.54-17.12s-10,11.28-28.88,25.53l-7.44,5.55c-2.58,1.91-5.21,3.85-7.76,5.92a70.17,70.17,0,0,0-7.23,6.65,32.53,32.53,0,0,0-5.39,7.73,25,25,0,0,0-2.31,9,43.19,43.19,0,0,0,.82,10.68c.7,3.81,1.74,7.82,2.84,12.06S293.47,575.46,294.26,580.3Z" transform="translate(-207.25 -205.16)"/><path d="M266.35,782.9c2.24,2.77,4.61,5.45,7,8.06s5,5.14,7.54,7.55a115.63,115.63,0,0,0,15.91,12.77,83.16,83.16,0,0,0,8.39,4.77,60.45,60.45,0,0,0,8.62,3.33,46.15,46.15,0,0,0,8.7,1.71,43.21,43.21,0,0,0,8.66,0,66,66,0,0,0,16.89-4,121.36,121.36,0,0,0,15.6-7.1,122.61,122.61,0,0,0,25.35-17.59A86.81,86.81,0,0,0,405.17,773a76.8,76.8,0,0,0,4.78-9.27,72.54,72.54,0,0,0,3.07-8.28,97.06,97.06,0,0,0,2.83-12.05c.29-1.42.45-2.51.69-3.26s.45-1.14.7-1.15.5.36.76,1.1a15.87,15.87,0,0,1,.73,3.37,47.31,47.31,0,0,1-.26,13.21,64,64,0,0,1-2.1,9.39,73.18,73.18,0,0,1-4.14,10.72,87.1,87.1,0,0,1-16.07,22.91,123.5,123.5,0,0,1-26.62,20.71,126.2,126.2,0,0,1-16.89,8.5,76.38,76.38,0,0,1-20.07,5.36,58.87,58.87,0,0,1-22.43-1.72,71.93,71.93,0,0,1-10.8-3.94,90.38,90.38,0,0,1-10.08-5.52,124.9,124.9,0,0,1-18.08-14.18c-2.81-2.63-5.53-5.31-8.19-8.13s-5.28-5.77-7.79-8.87a99.58,99.58,0,0,1-12.93-20.22,72.8,72.8,0,0,1-6.55-23,75.1,75.1,0,0,1,1.2-22.94,88.14,88.14,0,0,1,7-20.56,91.22,91.22,0,0,1,11-17.3l1.56-1.93a23.85,23.85,0,0,1,1.61-1.86l3.32-3.56c1.15-1.13,2.33-2.2,3.48-3.29s2.37-2.08,3.58-3.07c2.38-2,4.9-3.72,7.32-5.43,1.24-.82,2.51-1.57,3.74-2.34l1.85-1.14,1.89-1a111,111,0,0,1,14.8-6.78,126.13,126.13,0,0,1,26.85-6.54,133.65,133.65,0,0,1,20.6-1.07c11.3.43,17.37,2,17.31,2.87-.05,1.07-6.21,1.43-17.05,2.7-5.41.71-12,1.67-19.45,3.39a136.75,136.75,0,0,0-24.45,8,110.6,110.6,0,0,0-13,6.93l-1.65,1-1.6,1.1c-1.06.75-2.16,1.47-3.22,2.25-2.08,1.64-4.25,3.24-6.22,5.09s-3.93,3.78-5.89,5.76l-2.76,3.2c-.47.53-.91,1.09-1.33,1.67l-1.29,1.72a81.69,81.69,0,0,0-9,15.22c-4.9,11-7.67,23.66-6.17,36.31l.78,4.7c.31,1.56.8,3.09,1.18,4.65a60.24,60.24,0,0,0,3.52,9.15A88.09,88.09,0,0,0,266.35,782.9Z" transform="translate(-207.25 -205.16)"/><path d="M858.69,580.54A282.26,282.26,0,0,1,854,609.65c-1,4.61-1.89,9-3,13.59a98.86,98.86,0,0,1-4.19,13.43,49.53,49.53,0,0,1-7,12.43,33.52,33.52,0,0,1-10.94,9.17,35.23,35.23,0,0,1-12.54,3.53,57.82,57.82,0,0,1-11.11,0,104.6,104.6,0,0,1-30.73-7.5c-6.85-3-10.19-5.46-9.83-6.34s4.39-.22,11.41,1a167.36,167.36,0,0,0,29.58,2.73c6.06-.06,12.54-.78,17.52-3.8s8.8-8.59,11.32-15.88a94.35,94.35,0,0,0,3.19-11.77c.87-4.17,1.7-8.73,2.56-13.25,1.68-9.07,3.3-18.37,4.24-27.82a130.64,130.64,0,0,0,.17-27.22c-.08-1.08-.28-2.14-.42-3.2s-.28-2.12-.5-3.15l-.6-3.1c-.26-1-.51-2-.77-3s-.52-2-.77-3l-1-2.87c-.33-1-.63-1.91-1-2.84L838.4,528a88.21,88.21,0,0,0-11.5-19.38l-1.66-2.07c-.55-.68-1.07-1.38-1.67-2-1.17-1.28-2.31-2.53-3.44-3.75-2.4-2.3-4.65-4.58-7-6.49-2.29-2.06-4.73-3.66-6.93-5.36-1.15-.78-2.3-1.49-3.39-2.21a36.93,36.93,0,0,0-3.24-2c-2.16-1.18-4.12-2.43-6-3.29s-3.63-1.88-5.27-2.51-3.05-1.35-4.3-1.94-2.36-.95-3.23-1.37c-1.74-.83-2.64-1.51-2.56-2s1.14-.76,3.14-.83c1,0,2.22,0,3.67.07s3.08.43,4.94.74a54.38,54.38,0,0,1,6.09,1.48,67.49,67.49,0,0,1,7.08,2.45,37.08,37.08,0,0,1,3.83,1.67c1.29.62,2.65,1.24,4,1.95a94.29,94.29,0,0,1,8.29,5.06,99.41,99.41,0,0,1,8.54,6.52l4.19,3.91c.73.64,1.38,1.39,2.06,2.11l2,2.21a92.65,92.65,0,0,1,14.41,21.54,91,91,0,0,1,8.12,27.65A132.51,132.51,0,0,1,858.69,580.54Z" transform="translate(-207.25 -205.16)"/><path class="cls-5" d="M423.38,745.37" transform="translate(-207.25 -205.16)"/><path d="M629.51,827.62a392.81,392.81,0,0,0,48.7-18.25c15.4-6.88,29.76-14.36,42.4-22.81a167.59,167.59,0,0,0,17.51-13.48,130.64,130.64,0,0,0,14.37-14.93A159.45,159.45,0,0,0,764,742.39c3.32-5.36,6.39-10.6,9-15.79,5.33-10.35,9.47-20.15,12.93-28.86s6.22-16.33,8.53-22.57c4.6-12.48,7.45-19.34,8.42-19.06s-.09,7.61-3.07,20.66c-1.51,6.53-3.52,14.48-6.32,23.62A261.78,261.78,0,0,1,782.12,731c-2.45,5.57-5.4,11.27-8.68,17.11a162.1,162.1,0,0,1-11.66,17.45,137.32,137.32,0,0,1-15.14,16.81,172,172,0,0,1-18.54,15.06c-13.33,9.37-28.28,17.44-44.06,24.71a377.39,377.39,0,0,1-50.44,19.22c-8.91,2.56-17.77,4.94-26.65,6.71-4.41,1-8.86,1.69-13.24,2.48-2.2.38-4.41.64-6.6,1s-4.36.66-6.55.85a264.63,264.63,0,0,1-50.6,1,228.64,228.64,0,0,1-45.1-8.29,210.91,210.91,0,0,1-37.1-14.68l-4-2.09-2-1q-.94-.57-1.89-1.11l-7.27-4.34L426,817.4l-1.59-1.07c-.52-.37-1-.76-1.52-1.14L419.93,813c-3.91-2.83-7.25-5.86-10.39-8.55l-1.15-1-1.08-1-2.07-2-3.82-3.77c-2.31-2.48-4.26-4.78-5.95-6.75l-1.21-1.43c-.36-.49-.7-.95-1-1.4-.65-.89-1.23-1.7-1.73-2.43-2-2.94-2.89-4.63-2.51-4.95s2,.74,4.65,3c.67.57,1.4,1.21,2.2,1.93l1.25,1.13,1.41,1.17,6.7,5.63,4.1,3.18,2.2,1.72,1.13.89,1.21.85c3.28,2.27,6.71,4.88,10.68,7.29l3,1.9,1.53,1,1.6.91,6.62,3.81,7.19,3.69,1.85.95,1.93.87,3.92,1.78A220.29,220.29,0,0,0,488,833.63a232.48,232.48,0,0,0,42.9,6.59,268.5,268.5,0,0,0,48-1.79c2.07-.2,4.14-.59,6.23-.88s4.18-.59,6.27-1c4.18-.8,8.42-1.48,12.63-2.46C612.48,832.39,621,830.08,629.51,827.62Z" transform="translate(-207.25 -205.16)"/><path d="M346.76,676.29l13.65-3.44a11.9,11.9,0,0,0,8.55-13.1c-.8-5.34-5.74-11-11.72-10.35-28.7,3.07-57.67,11-79.5,30.88-20.35,18.53-31.49,47-25.32,74.2l23-6.35-8-34.66c-2.21-9.52-17.43-12.2-21.82-2.85C237,729,238.53,748.83,247,766.92c8.2,17.43,23.42,30.62,39.08,41.23,8.07,5.46,16.5,10.92,25.46,14.78a48.38,48.38,0,0,0,33.05,1.94c17.29-4.91,33.41-15.7,45.93-28.42a118.35,118.35,0,0,0,29.55-50.94c4.15-14.83-18.88-21.15-23-6.35a94.28,94.28,0,0,1-49.5,59.12c-6,2.92-13.14,5.6-19.94,4.84-7.56-.84-14.67-6.23-20.95-10.1-12.38-7.64-25-16.42-33.45-28.48-8.28-11.82-13.37-28.34-7-41.87l-21.82-2.85,8,34.66c1.46,6.28,8.65,10,14.69,8.34,6.46-1.78,9.77-8.38,8.34-14.69-4.3-19,5.46-39,20.32-52,16.66-14.55,40-20.56,61.47-22.86l-3.18-23.45-13.65,3.44c-14.89,3.75-8.58,26.79,6.35,23Z" transform="translate(-207.25 -205.16)"/><path d="M261.25,691.1a63.71,63.71,0,0,0-5.83,41.37c1.18,6.35,8.85,9.95,14.69,8.34,6.66-1.83,9.52-8.32,8.34-14.68a36.6,36.6,0,0,1,3.42-23c2.91-5.75,1.51-12.94-4.28-16.33-5.32-3.11-13.41-1.49-16.34,4.28Z" transform="translate(-207.25 -205.16)"/><path d="M327.55,493.84c-2.06,5-9.91,9-14.91,12.11-7.58,4.77-14.64,10.15-19.39,17.89-10.92,17.79-6.87,39.1-3.69,58.43l4.95,30.06c1.39,8.45,2,17.62,5.13,25.64,3.71,9.45,10.74,15.88,20.85,17.83s20.55,2.9,30.76,4.33c6.38.89,12.82-1.55,14.69-8.34,1.53-5.58-1.91-13.79-8.34-14.69-9.21-1.28-18.44-2.49-27.64-3.85-2.42-.36-6.31-1.14-7.18-1.8.48.69.33.41-.45-.83.17.82,0,.51-.4-.93a30.12,30.12,0,0,1-1.08-4.07C317,608,314.87,589.83,312,572c-2.17-13.19-5.48-30.19,5.54-40.35,5-4.6,11.48-7.45,16.92-11.46,7.42-5.46,12.65-11.47,16.16-20,2.45-6-2.65-13.13-8.34-14.69-6.84-1.88-12.23,2.35-14.68,8.34Z" transform="translate(-207.25 -205.16)"/><path d="M400,771c17.51,43.62,61,65.57,105.28,72.78A272.15,272.15,0,0,0,704.07,799c4.86-3.39,7.4-9.19,4.89-14.91-2.3-5.22-8.32-8.75-14.09-6.91L642.08,794c-16.71,5.35-33.39,11-50.57,14.68-31.92,6.79-63.65,1.9-93.67-10.2-16.58-6.68-32.26-15.74-47.12-25.62-8.41-5.59-21,3.76-17.53,13.49.58,2.05.71,1.55.37-1.49a1.67,1.67,0,0,1,.56-.84c-.12-.24,1.9.26-.73,0a27.36,27.36,0,0,1-8.76-2.47,36.29,36.29,0,0,1-15.42-13.94c-8-13.06-28.7-1.08-20.62,12.05,7.91,12.85,20.58,23.19,35.37,26.94,7.94,2,16.74,1.86,23.68-2.93,7.42-5.12,11.69-14.87,8.57-23.66l-17.54,13.48c28.21,18.75,59.89,34.08,93.52,39.74a170.79,170.79,0,0,0,53.54.67c18.21-2.66,35.79-8.26,53.27-13.85l62.22-19.9L692,778.35a248.61,248.61,0,0,1-170.21,43.79c-19.73-2.11-40-6.69-57.75-15.85-17.45-9-33.6-23.07-41.05-41.63-2.4-6-8-10.18-14.69-8.33C402.64,757.89,397.57,765,400,771Z" transform="translate(-207.25 -205.16)"/><path d="M777.64,655C762.45,707.64,739.46,767.37,680,781.22l13.49,17.53c11.06-22.53,32.49-37.1,49.78-54.48a295.7,295.7,0,0,0,49-65.3c7.45-13.46-13.17-25.52-20.62-12.05a272.82,272.82,0,0,1-47.67,62.91c-18.21,17.85-39.56,33.43-51.06,56.87-4.6,9.37,3,20,13.48,17.54,31.58-7.35,57.2-27.1,75.84-53.17,19.08-26.7,29.49-58.55,38.49-89.78,4.27-14.79-18.77-21.11-23-6.34Z" transform="translate(-207.25 -205.16)"/><path d="M784.63,498.88c12.07,8,25.18,16.35,32.93,29,8.41,13.67,9.33,30.14,7.77,45.73a210.57,210.57,0,0,1-4.64,25.51c-1.64,7.25-2.84,15.17-6,22-2.55,5.54-6.32,8.88-11,10.34-5.11,1.6-10.12,1.38-14.51-1-13.53-7.28-25.61,13.33-12,20.62a43.2,43.2,0,0,0,42.56-.89c14.24-8.62,19.13-23.88,22.68-39.2,7.4-31.88,14-68.93-6-97.85-10.23-14.8-24.93-25-39.73-34.82-5.38-3.56-13.21-1.06-16.33,4.29-3.42,5.83-1.11,12.76,4.28,16.33Z" transform="translate(-207.25 -205.16)"/><path d="M823.35,648.66c15.37,0,15.39-23.88,0-23.88s-15.39,23.88,0,23.88Z" transform="translate(-207.25 -205.16)"/><path d="M344.59,500.78a188,188,0,0,1,28.27-65.37l-20.62-12.05-22.59,44.53c-2.91,5.75-1.51,12.94,4.29,16.34,6.09,3.56,12.46.89,16.33-4.29A225.81,225.81,0,0,0,389,397c7-29.89,4.51-63.84,19.52-91.44,6.77-12.45,17.18-22.36,31-25.5,6.29-1.43,10-8.68,8.34-14.69-1.78-6.46-8.38-9.77-14.69-8.34-32.44,7.35-50.38,38.64-57,68.93-3.65,16.78-4.68,34-7.51,50.88a211.48,211.48,0,0,1-13,45.89,210.06,210.06,0,0,1-26,45.15l20.62,12.05,22.59-44.53c7-13.77-12-24.76-20.62-12.05a206.27,206.27,0,0,0-30.67,71.07c-1.4,6.29,1.9,12.92,8.34,14.69,6,1.65,13.28-2,14.68-8.34Z" transform="translate(-207.25 -205.16)"/><path d="M437.8,279.18c26.48-32.71,72.43-15.36,103.45.23,19.93,10,39.7,20,60.79,27.4a354.26,354.26,0,0,0,63.07,15.43c19.3,3,44.29,5.86,56.66,23.17,3.74,5.24,10.41,7.75,16.33,4.29,5.18-3,8-11.06,4.29-16.34-13.39-18.74-34.29-27.55-56.34-31.73-23.23-4.4-46.22-7.65-68.85-14.89-22.05-7.06-42.43-17.14-63.06-27.53-21.37-10.77-43.53-20.45-67.68-22.27-23.95-1.8-50.06,6.23-65.55,25.36-4.05,5-4.89,12,0,16.88,4.2,4.19,12.81,5,16.89,0Z" transform="translate(-207.25 -205.16)"/><path d="M728.75,345.81c23.44,10.35,27.08,39.73,32.3,61.83l20.79,88.1c3.52,14.95,26.55,8.62,23-6.35q-11.08-47-22.16-93.9c-6.29-26.67-14.24-58.08-41.89-70.3-5.9-2.61-12.83-1.72-16.34,4.28-3,5.08-1.65,13.72,4.28,16.34Z" transform="translate(-207.25 -205.16)"/><path d="M757.16,376.2a441.12,441.12,0,0,1,37.92,128.89c.87,6.4,9.06,9.89,14.69,8.34,6.89-1.89,9.21-8.27,8.33-14.69a460.44,460.44,0,0,0-40.32-134.6c-2.75-5.83-11.11-7.33-16.33-4.28-6,3.49-7.05,10.48-4.29,16.34Z" transform="translate(-207.25 -205.16)"/></g></svg>