<svg xmlns="http://www.w3.org/2000/svg" viewBox="0 0 72.66 68.92"><defs><style>.cls-1{fill:#4343dd;}.cls-2{fill:#3636ce;}.cls-3{fill:#fff;}.cls-4{fill:#e5e5e5;}.cls-5{fill:none;}</style></defs><title>Logo-PurpleGuy</title><g id="Cor"><g id="Cor-2" data-name="Cor"><path class="cls-1" d="M267.44,167.2c-1.07,1.09-2.13,2.18-3.21,3.26-1.67,1.69-2.52,1.54-1.2,4s1.38,1.52,3.83.87a14.77,14.77,0,0,0,3-.75c4.49-2.22,4.16-9.12,1.82-12.87-1.41-2.24-3.05-1.95-4.93-3.14-.7-.44-.86-.06.75-.58a8.41,8.41,0,0,0,2.93-1.88,10.25,10.25,0,0,0,3.15-5.43c.57-2.42-.43-5,.28-7.33.65-2.12,2.42-3.9,3.07-6.15,1.15-4,.28-3.65,4.11-2,2.57,1.1,5.15.92,7.7,1.7,2,.61,2.5,2.6,4.19,4a11,11,0,0,0,2.89,1.72c.68.3,3.59.71,4,1.07-.91-.77-.1,1.16,0,1.6a12.42,12.42,0,0,0,.93,3.4,9.54,9.54,0,0,0,4.81,4.84c2.79,1.28,5.17.44,7.95.92l-3-2.3q-.52-3-.33.08l0,3.17c2.37-1.9,2.25-2.5-.34-1.8-1.11.07-2.22.19-3.32.36a7.52,7.52,0,0,0-6.1,5.66c-2,7-4.66,15-13.74,14.53-4.23-.23-5.84-2.34-7.25-5.93-1.28-3.27-4.11-5.89-3.17-9.55.35-1.39,1.4-2.61,1.8-4,.54-1.92,0-3.6.11-5.49.12-2.25,1.21-3.51,2.14-5.6.46-1,1.07-4.16,1.38-4.54l-3.53,1.47c5,.42,10.48,3.7,14.44,6.55,4.24,3,7.36,7.25,11.67,10.15l1.19-9.14a15.59,15.59,0,0,0-8.59,6.93,45.08,45.08,0,0,0-2.58,5.55c-.55,1.29-1.18,4.18-2.3,5.12-1.28,1.07-5.08.69-6.23-.36s-2.16-5.59-2.09-7.12c.09-1.91,1-4,1.25-6,.21-1.77-.15-4.79.72-6.36l-4.32,2.47c.88-.11,4.83,2.81,5.59,3.25,1.94,1.13,4.59,2.27,6.17,3.88L291.59,152q1-2.62,0-.86c-.46.69-.9,1.39-1.32,2.11-.71,1.18-1.38,2.4-2,3.63a83,83,0,0,0-3.53,8l9.13-1.2c-1.76-2.83-4.91-6.4-6-9.52l-.51,3.86c1.17-1.65,4.13-3.21,5.73-4.52l-8.53-3.53a66.15,66.15,0,0,0,1.9,9.95c1.74,6.18,11.4,3.55,9.65-2.66a48,48,0,0,1-1.55-7.29c-.54-4.45-5-6.42-8.54-3.54-3.16,2.57-8.89,5.48-7.8,10.39.91,4.08,4.86,8.4,7.05,11.91,2.43,3.9,7.61,2.73,9.14-1.2a61,61,0,0,1,4.12-8.54c1.09-1.88,2.68-3.65,3-5.85.85-5.1-5.21-7.57-8.78-9.69s-9-6.55-13.33-4.63c-4.92,2.18-3.76,9.43-4.54,13.73-.47,2.6-1.42,4.84-1.15,7.53a28.86,28.86,0,0,0,2.31,7.79c2.08,5.14,5.22,7.88,10.84,8.3,4.81.37,9.76-.35,12.94-4.28,3-3.66,3.51-12.39,8.33-14.08a5.07,5.07,0,0,0,1.2-9.14c-2.17-1.46-3.69-3.71-5.62-5.46a67.71,67.71,0,0,0-6.8-5.22,46.29,46.29,0,0,0-14.95-6.59c-4.2-1.15-7.05-.81-9.08,3.44-1.25,2.6-2.14,5.24-3.45,7.83a13.32,13.32,0,0,0-1.25,6.61c.06,4.64-2.6,8.77-2.1,13.72A11.62,11.62,0,0,0,268,168c1.35,2.28,2.16,4.51,3.3,6.91,4,8.51,14.66,11.06,23.08,8a22.55,22.55,0,0,0,10.45-7.79,25.34,25.34,0,0,0,3.2-5.55,26.13,26.13,0,0,0,1.22-3.34c.17-.6.37-3.45.8-3.93-1.83,2.06,4.85,1,5.8.65a6.36,6.36,0,0,0,3.79-3.34c1.33-2.9,1.22-9.47-.42-12.26a5.39,5.39,0,0,0-3.91-2.66c-3.39-.66-4.76.85-6-2.79-.68-1.94-1-3.72-2.44-5.33-1.75-1.9-3.7-1.88-5.87-2.73-2.43-.95-2.9-3.33-5-4.91a10.66,10.66,0,0,0-5.78-1.93,20.13,20.13,0,0,1-7-1.86c-2.73-1.25-5.35-2.44-8.45-1.57-6.32,1.77-5.83,7.81-8.17,12.58-.95,1.93-2.32,3.48-2.78,5.66-.37,1.74.82,5.44-.05,6.88-.09.15-2.49,1.19-2.64,1.28a11.12,11.12,0,0,0-3.16,2.67,7.66,7.66,0,0,0-1.42,7.06c1.4,5.18,4.77,8.57,10.19,8.87l-3.54-1.47a3.51,3.51,0,0,0-.1,1.58l3.49-3.49c-3.66,1.13-7.29,1.52-10.06,4.54-2.46,2.67-3.3,6.67-1.08,9.77,6,8.31,14.52-.63,19.09-5.28s-2.55-11.67-7.07-7.07Z" transform="translate(-250.23 -118.75)"/></g><g id="Sombra"><path class="cls-2" d="M279.39,121.1a12,12,0,0,0-7.85,4.14c-2.22,2.81-1.48,6-3.1,9-.73,1.36-2.05,2.38-2.36,4-.25,1.26.4,2.49.26,3.75,1.07.65,1.11.95.13.9a9,9,0,0,0-1.18.55c-.84.56-1.11,1.52-1.87,2.16-2.47,2.07,1.08,5.59,3.53,3.53.18-.14,1.81-2,1.07-1.49s1-.22,1.24-.39c1.53-1.18,2-3.43,2.08-5.26.06-2.08-.35-2.29.61-4.13.51-1,1.33-1.76,1.76-2.81a12.66,12.66,0,0,0,.67-3.3c.61-3.88,2.65-5.25,6.34-5.84,3.17-.5,1.82-5.32-1.33-4.82Z" transform="translate(-250.23 -118.75)"/><path class="cls-2" d="M266.31,145.44c3.22,0,3.23-5,0-5s-3.22,5,0,5Z" transform="translate(-250.23 -118.75)"/><path class="cls-2" d="M268.18,158.42c-.31,6.77.62,13.42,5.59,18.39s11,7.43,18,8.18l-.33-2.45c-5.4,2.14-12.05-.67-15.9-4.62-3-3.11-4.14-7.71-8.25-9.64l-.63,2.33c3.82-.16-.54,5.89-1.41,6.09l1.42,1.84c1.11-1.72,5.15-7.22,2.23-9-4-2.53-3.94,6-4.35,7.19H267a27.28,27.28,0,0,1-.09-8.46l-2.46-.33-.8,6,2.45-.34L264.78,168a1.26,1.26,0,0,0-2.41,0,23.31,23.31,0,0,0-.51,6.29l2.45-.33a27.48,27.48,0,0,1-1.24-5c-.22-1.52-2.3-.94-2.45.33l-.61,3.42h2.41l-1-4a1.26,1.26,0,0,0-2.46.34l-.15,3.77,2.33-.64-.51-1.52a1.26,1.26,0,0,0-2.41,0l-.42,2.2,2.29-.3L259.2,170c-.28-1.12-2.23-1.26-2.41,0l-.85,6,2.46.33.05-4c0-1.37-2.23-1.76-2.46-.34-1.17,7.23,3.52,11,10.18,7.25a1.25,1.25,0,0,0-1-2.28A30.45,30.45,0,0,1,259,176l.25.19a4.83,4.83,0,0,0,3,1.43,3.09,3.09,0,0,0,2.77-1.22,1.26,1.26,0,0,0-.2-1.51c-.91-1.13-2.48-1.61-3.74-2.27-1-.54-2.42.61-1.71,1.71a5.31,5.31,0,0,0,2,2.11c.4.21.95.25,1.34.46,1.31.74.88-.82.56.25a1.26,1.26,0,0,0,1.83,1.41c-2.43,1.54-8.25.67-8.38-2.89-.07-2,3.08-5.44,4.8-6.13,2.23-.9,5.16-.41,6.12,1.65a9.62,9.62,0,0,1,.43,4.77,5.29,5.29,0,0,1-3.65,2.92,3.08,3.08,0,0,1-3.84-.43q-5-.27-1.75-5.34c.67-1.45-1.48-2.72-2.16-1.26-3.65,7.89,2.77,12.88,10.25,8.72,3.25-1.8,4.39-3.49,3.67-6.88s.34-6.41-3.66-7c-8-1.24-16.22,4.2-11.34,12.39,1.92,3.23,5,3.5,8.57,2.24,2-.71,4.62-2.48,3.82-5a1.31,1.31,0,0,0-1.21-.91,4.55,4.55,0,0,0-2.93,1l1.84,1.41c1.31-4.35-2.44-2-4.19-4.74l-1.72,1.71c3.79,2,.37-1.42-1-2.07a1.3,1.3,0,0,0-1.51.2c-1.44,1.3-1.1,3,.11,4.42,2,2.35,5.64,2.74,8.43,2l-1-2.28q-4.64,3.59-6.51-4.43l-2.45-.33,0,4c0,1.37,2.25,1.76,2.45.33l.85-6h-2.41a13.39,13.39,0,0,0,1.1,3.13,1.26,1.26,0,0,0,2.28-.3l.42-2.19h-2.41a14.51,14.51,0,0,0,.77,2.12c.52,1.22,2.28.49,2.32-.63l.15-3.77-2.45.33,1,3.94a1.26,1.26,0,0,0,2.41,0,27,27,0,0,0,.7-4.08l-2.46.33a27.09,27.09,0,0,0,1.24,5c.44,1.26,2.54,1.16,2.46-.33a19.79,19.79,0,0,1,.42-5.62h-2.41l1.29,5.64c.35,1.5,2.29,1,2.46-.33l.8-6c.19-1.39-2.26-1.73-2.45-.34a32.78,32.78,0,0,0,.09,9.79c.21,1.31,2.07,1.06,2.41,0a10.08,10.08,0,0,0,.77-4.2c-.5-3.64-2.38,2.83-3.22,4.13a1.26,1.26,0,0,0,1.41,1.83c4.95-1.16,7.37-11.28.74-11-1.14,0-1.83,1.77-.63,2.33,3.35,1.57,4.51,5.42,6.76,8.13a20.11,20.11,0,0,0,6,4.87c3.93,2.1,9.08,3.2,13.33,1.51a1.26,1.26,0,0,0-.33-2.46c-6.29-.67-11.72-2.85-16.24-7.44s-5.14-10.53-4.86-16.63c.07-1.61-2.43-1.61-2.5,0Z" transform="translate(-250.23 -118.75)"/><path class="cls-2" d="M269.36,158.5c1.1,9.41,3.35,16.4,11.64,21.7a20.51,20.51,0,0,0,10.86,3.22c2.3.11,5,.82,6-1.68.6-1.49-1.82-2.14-2.41-.66-.19.48-7.66-.48-8-.56a21.33,21.33,0,0,1-8-4.56c-5.5-4.71-6.77-10.53-7.58-17.46-.18-1.58-2.69-1.59-2.5,0Z" transform="translate(-250.23 -118.75)"/><path class="cls-2" d="M263.72,149.37A9.22,9.22,0,0,0,265,159.94v-1.77l-1.2,1.07,2,.25c-1.6-2.44-1.64-4.64-1.75-7.46a1.27,1.27,0,0,0-2.13-.89,7.08,7.08,0,0,0-1.79,6.17c.34,2.56,2.3,4,3.79,5.87l-.32-1.22a6.32,6.32,0,0,0-1.46-2.66,7.72,7.72,0,0,1-.87-2.36,21.63,21.63,0,0,1,.11-4.33c0-1.18-1.79-1.79-2.33-.63-1.05,2.27-1.82,5.24-1.09,7.71s2.94,4.07,4.79,5.74l.56-2.09c-1.39.3-2.82-1.62-3.3-2.61a5.48,5.48,0,0,1-.62-3c.08-2.07.55-5.68,3.15-5.59l-1.25-1.25c-.17,2.47-1.57,4.37-.66,6.92.68,1.9,1.85,2.2,3.39,3.17,2,1.25-.34,3.64-2.19,2.9s-3.05-3-3.5-4.7a8.36,8.36,0,0,1,.4-5.54c1.13-2.21,3.12-2.48,5.35-2.26,1.6.16,1.59-2.34,0-2.5-4.38-.44-7.53,1.53-8.29,6s.9,9.33,5.14,11.39c3.09,1.49,6.42-1.29,6.8-4.55.16-1.41-.64-2.18-1.86-2.74-2-.93-3.33-1.91-2.94-4.29a38,38,0,0,0,.86-3.77,1.26,1.26,0,0,0-1.25-1.25c-4.87-.16-5.93,5-5.65,9.1.24,3.57,3.17,7.83,7.08,7a1.26,1.26,0,0,0,.55-2.09c-1.24-1.12-2.84-2.09-3.63-3.61-1.09-2.11-.65-4.71.32-6.82l-2.33-.63c0,2.73-.4,5,.89,7.53.79,1.57,2.57,4.12,4.66,3.86a1.71,1.71,0,0,0,1.58-2c-.19-.77-1.22-1.46-1.69-2-1.63-1.85-2.75-5.1-.64-7.06l-2.13-.88c.13,3.28.23,5.89,2.09,8.72a1.27,1.27,0,0,0,2,.26l1.2-1.07a1.28,1.28,0,0,0,0-1.77,6.67,6.67,0,0,1-.88-7.54c.72-1.43-1.43-2.7-2.16-1.26Z" transform="translate(-250.23 -118.75)"/><path class="cls-2" d="M315,157.37c-.75,1-2.61,1.32-3.76,1.34l.35.85c.44-.46,1.34-.51,1.93-.67a5.31,5.31,0,0,0,1.64-.65.5.5,0,0,0-.25-.93c-1.5-.05-2.93.94-4.42.85l.49.37a16.19,16.19,0,0,1,2.21-.28,3.61,3.61,0,0,0,1.62-.42c.31-.22.35-.84-.12-.91-1.45-.24-2.84-.67-4,.52-.68.7-.92,1.95.24,2.26a5.62,5.62,0,0,0,4.08-1.2,1,1,0,0,0,.4-1.13c-.23-.48-.76-.38-1.19-.42-.64-.06-.63.94,0,1,.41,0,0,0-.21,0s-.5.23-.75.32-1.58.66-1.93.36c-.26,0-.28-.12-.07-.3a.75.75,0,0,1,.28-.33,1.58,1.58,0,0,1,.88-.42,8,8,0,0,1,2,.28l-.12-.91c-.62.42-5,0-4.3,1.83a.51.51,0,0,0,.48.36c1.5.09,2.93-.9,4.42-.85l-.25-.93c-1.12.74-2.82.49-3.78,1.48a.5.5,0,0,0,.36.85c1.57,0,3.63-.49,4.62-1.83.38-.52-.49-1-.86-.51Z" transform="translate(-250.23 -118.75)"/></g><g id="Olho"><path class="cls-3" d="M279.22,158.25a13.06,13.06,0,0,0-.5,2.79c0,.31-.07.62-.08.93,0,.63.23-.95,0,0a6.26,6.26,0,0,0,1.48,6.42,5.41,5.41,0,0,0,8.32-1.07c1.19-1.89.94-4.35.32-6.37a5,5,0,0,0-9.65,2.66c.09.29.15.58.25.87s.05.23,0-.14a2.36,2.36,0,0,1,.42-2l3-2.3-.2.06h2.66L285,160l2.21,1.28c1.33,1.18.73,5.17,1.16,3,.13-.68.21-1.39.28-2.08a8.18,8.18,0,0,1,.1-1.12l-.07.59a4.27,4.27,0,0,1,.21-.72,5,5,0,0,0-3.49-6.15,5.12,5.12,0,0,0-6.15,3.49Z" transform="translate(-250.23 -118.75)"/><path class="cls-3" d="M294.47,158.83c0,.86,0,1.73,0,2.59,0,.43-.07.86-.09,1.3-.07,1.1.14-.81-.05.38a5.47,5.47,0,0,0,.51,3.85,5.05,5.05,0,0,0,3,2.3c2.4.55,5.72-.73,6.16-3.49a34.24,34.24,0,0,0,.48-6.93c-.12-2.61-2.22-5.12-5-5-2.61.12-5.13,2.2-5,5Z" transform="translate(-250.23 -118.75)"/></g><g id="Sombra-2" data-name="Sombra"><path class="cls-4" d="M279.24,154.84a13.56,13.56,0,0,0,0,11.4c1.73,3.36,5.45,4,8.88,3.07l-1-2.29c-2.39,1.75-5.09,1.45-6.57-1.16-1.62-2.85-.8-5.58.32-8.45.58-1.5-1.83-2.15-2.41-.66-.93,2.37-1.75,4.14-1.32,6.69a10.9,10.9,0,0,0,2.24,5.12c2.22,2.82,6.19,2.68,9,.62,1.07-.79.49-2.69-1-2.29-2.93.82-5.62,0-6.47-3.1-.64-2.34-.72-5.51.4-7.69.74-1.42-1.42-2.69-2.16-1.26Z" transform="translate(-250.23 -118.75)"/><path class="cls-4" d="M279.24,154.84a13.56,13.56,0,0,0,0,11.4c1.73,3.36,5.45,4,8.88,3.07l-1-2.29c-2.39,1.75-5.09,1.45-6.57-1.16-1.62-2.85-.8-5.58.32-8.45.58-1.5-1.83-2.15-2.41-.66-.93,2.37-1.75,4.14-1.32,6.69a10.9,10.9,0,0,0,2.24,5.12c2.22,2.82,6.19,2.68,9,.62,1.07-.79.49-2.69-1-2.29-2.93.82-5.62,0-6.47-3.1-.64-2.34-.72-5.51.4-7.69.74-1.42-1.42-2.69-2.16-1.26Z" transform="translate(-250.23 -118.75)"/><path class="cls-4" d="M295.47,154.32c-1.31,3.31-1.93,8.12-.33,11.48,1.39,2.9,5.44,3.12,8.14,2.1l-1.22-2.09c-.92,1-2.79,2-4.22,1.2-1.16-.65-1.43-2.33-1.63-3.49a12,12,0,0,1,.82-7.27c.68-1.44-1.47-2.71-2.16-1.26a13.88,13.88,0,0,0-1.37,6.53c.08,2,.31,4.85,1.47,6.55,1.94,2.83,6.94,1.63,8.86-.5.77-.84,0-2.56-1.22-2.08-6.94,2.62-6.34-6.43-4.73-10.51.59-1.49-1.83-2.14-2.41-.66Z" transform="translate(-250.23 -118.75)"/></g></g><g id="Traço"><path d="M274.66,176.62c-.18-.16-.36-.31-.53-.48a18.71,18.71,0,0,1-3-3.89,26.06,26.06,0,0,1-3,4.23,21.85,21.85,0,0,0,2.4,3.15c.38.42.78.81,1.19,1.2a24,24,0,0,0,2-2.53C274,177.75,274.33,177.18,274.66,176.62Z" transform="translate(-250.23 -118.75)"/><path class="cls-5" d="M279.8,158.06a9.35,9.35,0,0,0-.6,1.44,5.07,5.07,0,0,0-.17.7c0,.28-.09.56-.12.85a10.12,10.12,0,0,0,.1,3.3,9.32,9.32,0,0,0,.49,1.61,6.1,6.1,0,0,0,.77,1.36,4.67,4.67,0,0,0,2.42,1.72,3.74,3.74,0,0,0,3.24-.78,5.71,5.71,0,0,0,2-3,10.57,10.57,0,0,0,.28-3.85,11.9,11.9,0,0,0-.77-3.6,6.56,6.56,0,0,0-1.16-1.87c-1.85.13-3.65.3-5.37.49A11.1,11.1,0,0,0,279.8,158.06Z" transform="translate(-250.23 -118.75)"/><path class="cls-5" d="M297.08,155.58a11,11,0,0,0-1.93,5c-.27,2.21.08,4.82,1.45,6.23a3.76,3.76,0,0,0,3,1.12,3.45,3.45,0,0,0,2.57-1.66,11.91,11.91,0,0,0,1.16-3.56,7.44,7.44,0,0,0,.11-.89,8.54,8.54,0,0,0,0-.91c0-.64,0-1.25-.05-1.82a8.67,8.67,0,0,0-.68-3c0-.11-.11-.21-.17-.32l-3.26-.15C298.6,155.6,297.84,155.58,297.08,155.58Z" transform="translate(-250.23 -118.75)"/><path d="M304.61,155.11a7.38,7.38,0,0,0-1.08-1.42c-1.13-.21-2.32-.38-3.58-.54l-.43-.06h0a10.94,10.94,0,0,0-1.74,1.6,10,10,0,0,0-.68.89c.76,0,1.52,0,2.26,0l3.26.15c.45,0,.91,0,1.34.08l1.07.08A7.61,7.61,0,0,0,304.61,155.11Z" transform="translate(-250.23 -118.75)"/><path d="M286,153.08h0l.26-.17-.58.05A1.45,1.45,0,0,1,286,153.08Z" transform="translate(-250.23 -118.75)"/><path class="cls-5" d="M312,155.76c.75.24,1.41.47,1.95.67l2,.77-2.15-.31c-.47-.08-1-.16-1.64-.24a32,32,0,0,1,.58,3.82c0,.55.06,1.1.07,1.66l.6-.29c.52-.26,1.13-.57,1.73-.91a2.81,2.81,0,0,0,1.39-1.47,13.76,13.76,0,0,0,.41-2.54c.09-.94.16-1.93.19-3,0-.52,0-1.06,0-1.6A4.19,4.19,0,0,0,317,151c-.06-.14-.09-.16-.28-.34a5,5,0,0,0-.6-.47,3.58,3.58,0,0,0-.6-.34l-.8-.23c-1.93-.55-4-1.12-6.09-1.65a27.84,27.84,0,0,1,1.71,3.14A26.88,26.88,0,0,1,312,155.76Z" transform="translate(-250.23 -118.75)"/><path class="cls-5" d="M266,160.68c.13.6.25,1.06.34,1.36l.13.45-.06-.47c-.05-.31-.11-.77-.15-1.38s-.06-1.07,0-1.72l-.49.11C265.83,159.67,265.93,160.22,266,160.68Z" transform="translate(-250.23 -118.75)"/><path d="M309.93,163s.32-.05.93-.2a10.26,10.26,0,0,0,1.93-.66c0-.56,0-1.11-.07-1.66a32,32,0,0,0-.58-3.82l-.86-.1c-1-.11-2.09-.28-3.32-.38l-1.73-.15a24.12,24.12,0,0,1,.76,4.81,20.3,20.3,0,0,1-5.05,14.86,19.89,19.89,0,0,1-14.29,6.23,19.38,19.38,0,0,1-13-5.3c-.33.56-.67,1.13-1,1.68a24,24,0,0,1-2,2.53,25.15,25.15,0,0,0,6.3,4.43,23.31,23.31,0,0,0,9.6,2.4,24.41,24.41,0,0,0,22-12.25,26.58,26.58,0,0,0,2.09-4.86,28.86,28.86,0,0,0,1-5.05c.08-1,.13-2,.13-3a10.73,10.73,0,0,1-1.91.38C310.25,163,309.93,163,309.93,163Z" transform="translate(-250.23 -118.75)"/><path d="M315.68,157.14s-.47-.22-1.78-.71c-.54-.2-1.2-.43-1.95-.67.07.3.12.59.19.89.62.08,1.17.16,1.64.24C315.17,157.09,315.68,157.14,315.68,157.14Z" transform="translate(-250.23 -118.75)"/><path d="M304.2,153.81c-.21-.05-.45-.08-.67-.12a7.38,7.38,0,0,1,1.08,1.42,7.61,7.61,0,0,1,.4.81l1.22.1a19.47,19.47,0,0,0-.59-1.92C305.17,154,304.7,153.89,304.2,153.81Z" transform="translate(-250.23 -118.75)"/><path d="M311.28,156.55l.86.1c-.07-.3-.12-.59-.19-.89l-.47-.14c-1-.29-2-.64-3.26-.92-.8-.21-1.67-.41-2.58-.6a19.47,19.47,0,0,1,.59,1.92l1.73.15C309.19,156.27,310.3,156.44,311.28,156.55Z" transform="translate(-250.23 -118.75)"/><path d="M265.74,158.94c0-.24-.06-.48-.08-.73C265.68,158.46,265.71,158.7,265.74,158.94Z" transform="translate(-250.23 -118.75)"/><path d="M265.74,159h0a.28.28,0,0,1,0-.09Z" transform="translate(-250.23 -118.75)"/><path d="M267.62,150c.41-.78.86-1.51,1.32-2.22l-1.34.46-.37.13a21,21,0,0,0-.91,2.66l.93-.27C267.38,150.51,267.49,150.24,267.62,150Z" transform="translate(-250.23 -118.75)"/><path d="M267.62,150c-.13.24-.24.51-.37.76l.83-.24h0c.18-.4.39-.81.61-1.22l.11-.21c.24-.42.49-.85.76-1.27l.24-.33-.86.29C268.48,148.49,268,149.22,267.62,150Z" transform="translate(-250.23 -118.75)"/><path d="M297.42,143.2a49.76,49.76,0,0,0-8.28,0,73.73,73.73,0,0,0-15.07,2.94c-.39.11-.75.23-1.12.35a29.92,29.92,0,0,0-1.88,3.2c1.2-.33,2.43-.65,3.7-1a89.61,89.61,0,0,1,14.61-2.53,55.65,55.65,0,0,1,11.66.25A23.94,23.94,0,0,0,297.42,143.2Z" transform="translate(-250.23 -118.75)"/><path d="M308.62,147.92a26.37,26.37,0,0,0-2.34-3.23,51.83,51.83,0,0,0-8.86-1.49,23.94,23.94,0,0,1,3.62,3.24,56,56,0,0,1,6,1.08Z" transform="translate(-250.23 -118.75)"/><path d="M310.86,162.79c-.61.15-.93.2-.93.2s.32,0,.95-.07a10.73,10.73,0,0,0,1.91-.38v-.41A10.26,10.26,0,0,1,310.86,162.79Z" transform="translate(-250.23 -118.75)"/><path d="M269.8,147.49l-.24.33a20.67,20.67,0,0,0-1.48,2.7l.22-.06c.9-.26,1.83-.52,2.77-.77a29.92,29.92,0,0,1,1.88-3.2C271.87,146.82,270.82,147.15,269.8,147.49Z" transform="translate(-250.23 -118.75)"/><path d="M261.52,171.41a7,7,0,0,1,3-.64,9.67,9.67,0,0,1,2.38.35,11.25,11.25,0,0,1,2,.76l-2.11.24a14.28,14.28,0,0,0-4.47,1.1,6.35,6.35,0,0,0-1.88,1.31,4.69,4.69,0,0,0-1,1.65,4.1,4.1,0,0,0-.24,1.41,4,4,0,0,0,.05.57,2.75,2.75,0,0,1-.35-.48,3.6,3.6,0,0,1-.46-1.62,4.61,4.61,0,0,1,.64-2.52A5.44,5.44,0,0,1,261.52,171.41Z" transform="translate(-250.23 -118.75)"/><path d="M257.55,151.81a5.74,5.74,0,0,1,1.56-1.16c.52-.27,1-.5,1.49-.72a24.92,24.92,0,0,1,8-2,22.59,22.59,0,0,1,3.47,0c.82.06,1.26.12,1.26.12l-1.24.19c-.8.13-1.95.34-3.33.7a35.71,35.71,0,0,0-4.7,1.56c-.86.35-1.75.75-2.64,1.21a9.35,9.35,0,0,0-2.39,1.48,1.87,1.87,0,0,0-.44.95,12.44,12.44,0,0,0-.11,1.46c0,1-.13,2-.14,2.92a11.08,11.08,0,0,0,.7,4.68,5.41,5.41,0,0,0,2.06,2.43,4.73,4.73,0,0,0,.83.39l.31.09h-.33a4.13,4.13,0,0,1-.94-.18,5.57,5.57,0,0,1-2.8-2.22,10.73,10.73,0,0,1-1.52-5.12c-.08-1-.07-2-.09-3.06a11.44,11.44,0,0,1,.08-1.7A3.74,3.74,0,0,1,257.55,151.81Z" transform="translate(-250.23 -118.75)"/><path d="M318,149.09c-.66-.8-2-1.12-3.36-1.49s-2.63-.65-3.88-.91c-2.5-.53-4.78-.94-6.69-1.28-3.84-.66-6.24-1-6.24-1s2.42-.15,6.34,0c2,.08,4.3.26,6.88.61,1.29.17,2.65.4,4,.71a19.93,19.93,0,0,1,2.18.59,5.24,5.24,0,0,1,2.24,1.45,3.82,3.82,0,0,1,.75,1.32,4.43,4.43,0,0,1,.16,1.4c0,.85-.17,1.49-.26,2.21-.22,1.4-.42,2.74-.62,4a16,16,0,0,1-.92,3.7,4.85,4.85,0,0,1-1.07,1.59,3.9,3.9,0,0,1-1.54.83c-3.8,1.06-6.15,1.59-6.15,1.59s2.22-1,5.79-2.52c1.75-.58,2-2.88,2.22-5.43.12-1.27.25-2.61.38-4,.07-.68.18-1.45.19-2.05A1.78,1.78,0,0,0,318,149.09Z" transform="translate(-250.23 -118.75)"/><path d="M257.79,158c-.1,2.08-.14,4.38,1.27,6.08.46.57,2.29,1.93,2.33.3a.5.5,0,0,0-.25-.43c-1.19-.52-1.42-1.29-1.57-2.56s-.26-2.26-.39-3.4c-.07-.63-1.07-.64-1,0,.16,1.38.27,2.77.48,4.14a3.3,3.3,0,0,0,1,2.23c.09.07.28.25.38.25s.54-.26.52-.47-.83-.74-1-.93a5.16,5.16,0,0,1-.5-1,10.51,10.51,0,0,1-.35-4.25c0-.65-1-.65-1,0Z" transform="translate(-250.23 -118.75)"/><path d="M316.21,148.85c3.25.48,1.35,7,1,8.75-.27,1.4-.37,2.77-1.66,3.78a18.6,18.6,0,0,1-1.94,1l.69.69.51-.72c.29-.41-.28-1-.68-.68a7.07,7.07,0,0,1-2.76,1.07c-.63.11-.36,1.07.27,1a7.39,7.39,0,0,0,3-1.18l-.68-.68-.52.71c-.3.42.28.93.69.69,1.07-.64,2.44-1,3.17-2.07,1.16-1.7,1.24-4.77,1.51-6.75.3-2.28.77-6.08-2.33-6.53-.63-.1-.9.87-.26,1Z" transform="translate(-250.23 -118.75)"/><path d="M262.33,160.83c.56-.07,1.12-.15,1.68-.25a4.13,4.13,0,0,0,1.64-.41.5.5,0,0,0-.25-.93,5.61,5.61,0,0,0-2.65.42c-.59.24-.33,1.21.26,1a5,5,0,0,1,2.39-.38l-.25-.93a4.08,4.08,0,0,1-1.4.31c-.47.08-.94.15-1.42.21s-.63,1.08,0,1Z" transform="translate(-250.23 -118.75)"/><path d="M274.5,157.17a.5.5,0,0,0,0-1,.5.5,0,0,0,0,1Z" transform="translate(-250.23 -118.75)"/><path d="M267.67,159.47a115.64,115.64,0,0,1,13.23-3.28c.63-.13.36-1.1-.27-1a115.68,115.68,0,0,0-13.23,3.29c-.61.2-.35,1.17.27,1Z" transform="translate(-250.23 -118.75)"/><path d="M315.5,157.1a31.43,31.43,0,0,1-4-.53v1a6.49,6.49,0,0,1,3,.21.5.5,0,0,0,.27-1,7.71,7.71,0,0,0-3.54-.21.5.5,0,0,0,0,1,32.13,32.13,0,0,0,4.25.57c.64,0,.64-1,0-1Z" transform="translate(-250.23 -118.75)"/><path d="M308.06,155.79,298,154.45a11.31,11.31,0,0,1,1.5-1.36c-1.1-.12-2.25-.21-3.42-.29a69.89,69.89,0,0,0-7.41-.07c-.8.05-1.59.11-2.38.19l-.26.17h0a1.45,1.45,0,0,0-.29-.11c-.81.08-1.6.17-2.39.28-1.05.14-2.07.31-3.07.49-.8.14-1.58.29-2.33.46-1.63.38-3.17.74-4.58,1.19s-2.73.86-3.91,1.29l-.79.3c-.85.33-1.65.66-2.35,1h0c0,.34,0,.66,0,1h0c0-.31,0-.63,0-1-.22.08-.4.17-.6.26l-1,.44L264,159l-1.82.91s.63-.13,2-.47l.45-.11a27.18,27.18,0,0,0-.28,4.18,20.38,20.38,0,0,0-4.47.7c-.55.15-1.1.31-1.63.51-.27.11-.51.18-.82.32a8.36,8.36,0,0,0-.91.43,11.61,11.61,0,0,0-3.16,2.46,12.41,12.41,0,0,0-2.19,3.39,10.22,10.22,0,0,0-.88,4.17,11.55,11.55,0,0,0,.65,4.18,10.12,10.12,0,0,0,2.45,3.88,9.57,9.57,0,0,0,4.1,2.29,11.47,11.47,0,0,0,4.22.33,14.86,14.86,0,0,0,7.17-2.78,18.32,18.32,0,0,0,2.83-2.55c-.41-.39-.81-.78-1.19-1.2a21.85,21.85,0,0,1-2.4-3.15,13.76,13.76,0,0,1-2.5,2.17,9.47,9.47,0,0,1-4.43,1.6,6,6,0,0,1-2.13-.19,3.69,3.69,0,0,1-1.51-.85,5.09,5.09,0,0,1-1.33-3.66,5.74,5.74,0,0,1,.07-1,4.69,4.69,0,0,1,.28-1,7,7,0,0,1,1.1-1.86,6.22,6.22,0,0,1,1.56-1.35,7.38,7.38,0,0,1,1-.49c.4-.17.8-.31,1.2-.45a16.57,16.57,0,0,1,3.47-.77c.49-.05,1-.1,1.47-.12,1,0,2.05,0,3.09,0a22.29,22.29,0,0,1-1-4.86.31.31,0,0,1,0-.1,24.27,24.27,0,0,1,.06-5.19c.46-.1.92-.21,1.41-.29,1.21-.25,2.54-.52,4-.74,1.19-.23,2.48-.4,3.8-.59l0,0a11.81,11.81,0,0,0-.88,1.82,7.75,7.75,0,0,0-.32,1.06l-.18,1a12.69,12.69,0,0,0,0,4.22,12.35,12.35,0,0,0,.58,2.12,8.4,8.4,0,0,0,1.13,2.08,7.41,7.41,0,0,0,4,2.85,6.12,6.12,0,0,0,3.15,0,7.37,7.37,0,0,0,2.66-1.36,8,8,0,0,0,1.87-2.15,9.28,9.28,0,0,0,1-2.5,12.75,12.75,0,0,0,.16-4.86,13.9,13.9,0,0,0-1.23-4.29,9.12,9.12,0,0,0-.63-1.05c1.71-.09,3.39-.13,5-.15.14-.24.3-.47.46-.7h0c-.16.23-.32.46-.46.7a13.59,13.59,0,0,0-1.64,4.64,13.37,13.37,0,0,0,.05,4.37,8.34,8.34,0,0,0,2.1,4.35,6.62,6.62,0,0,0,5.56,2,6.28,6.28,0,0,0,4.67-3.23,13.9,13.9,0,0,0,1.28-4.56A10.73,10.73,0,0,0,306,162c0-.42,0-.76,0-1.08a19.19,19.19,0,0,0-.19-2,11.12,11.12,0,0,0-.67-2.58,50.74,50.74,0,0,1,5.42,1C311.39,157.05,308.06,155.79,308.06,155.79ZM265.74,159c0-.13,0-.28,0-.41,0,.1,0,.21,0,.32a.28.28,0,0,0,0,.09c.08.64.18,1.19.27,1.65C265.93,160.22,265.83,159.67,265.74,159Zm22.16,6.19a5.71,5.71,0,0,1-2,3,3.74,3.74,0,0,1-3.24.78,4.67,4.67,0,0,1-2.42-1.72,6.1,6.1,0,0,1-.77-1.36,9.32,9.32,0,0,1-.49-1.61,10.12,10.12,0,0,1-.1-3.3c0-.29.07-.57.12-.85a5.07,5.07,0,0,1,.17-.7,9.35,9.35,0,0,1,.6-1.44,11.1,11.1,0,0,1,1.08-1.67c1.72-.19,3.52-.36,5.37-.49a6.56,6.56,0,0,1,1.16,1.87,11.9,11.9,0,0,1,.77,3.6A10.57,10.57,0,0,1,287.9,165.22Zm6.87-10.9L295,154l-.24.31Zm8.7,7.54a7.44,7.44,0,0,1-.11.89,11.91,11.91,0,0,1-1.16,3.56,3.45,3.45,0,0,1-2.57,1.66,3.76,3.76,0,0,1-3-1.12c-1.37-1.41-1.72-4-1.45-6.23a11.1,11.1,0,0,1,1.9-5c1.32.06,3.36.16,5.68.4a.16.16,0,0,1,0,.07,8.67,8.67,0,0,1,.68,3c0,.57.06,1.18.05,1.82A8.54,8.54,0,0,1,303.47,161.86Z" transform="translate(-250.23 -118.75)"/><path class="cls-5" d="M304.31,138a20.62,20.62,0,0,0-3-1.56,22.7,22.7,0,0,1-3.9-1.88,33.77,33.77,0,0,1-3.46-2.84A8.19,8.19,0,0,0,291,129.9a31.24,31.24,0,0,0-4-.81,16.46,16.46,0,0,1-2.61-.67,15.46,15.46,0,0,1-2.47-1.15,17.33,17.33,0,0,0-1.82-.92,7.59,7.59,0,0,0-1.69-.48,8.65,8.65,0,0,0-3.48.11,6.89,6.89,0,0,0-1.47.52,2.14,2.14,0,0,0-.34.21.76.76,0,0,0-.18.24,26.28,26.28,0,0,0-.77,3.59,20.78,20.78,0,0,1-1.3,4.2,13.19,13.19,0,0,1-1.07,1.95c-.42.64-.88,1.14-1.15,1.51a2.08,2.08,0,0,0-.46.88,6.22,6.22,0,0,0,0,1.4,11.71,11.71,0,0,1-.33,3.63,11.55,11.55,0,0,1-1.23,3l-.05.1a72.48,72.48,0,0,1,43.8-3,21.63,21.63,0,0,0-1.41-2A19.73,19.73,0,0,0,304.31,138Z" transform="translate(-250.23 -118.75)"/><path d="M263.66,150.8l-4.28,1.3a4.7,4.7,0,0,0-1.29,2.59,11.46,11.46,0,0,0,.56,4.35l.78,2.93a7.81,7.81,0,0,0,.33,1,1.4,1.4,0,0,0,.48.6,2.69,2.69,0,0,0,1.44.43,10.92,10.92,0,0,0,1.16.1,13,13,0,0,0,1.52,0c.72,0,.89-.06.89-.06h-.89c-.35,0-.85,0-1.51-.09-.34,0-.71-.08-1.14-.15a2.51,2.51,0,0,1-1.29-.43c-.25-.25-.34-.72-.41-1.55s-.23-1.8-.38-3a11.23,11.23,0,0,1-.11-3.89c.28-1.28,1.45-2.2,3.1-2.8.32-.12.67-.23,1-.33C263.63,151.5,263.64,151.16,263.66,150.8Z" transform="translate(-250.23 -118.75)"/><path d="M264.77,151.48l.56-.16,1-.29c.1-.37.22-.76.35-1.15l-1.63.5C264.93,150.76,264.84,151.12,264.77,151.48Z" transform="translate(-250.23 -118.75)"/><path d="M307.55,146.32c.37.52.73,1.05,1.07,1.6,1.33.33,2.62.68,3.89,1a18.85,18.85,0,0,0-.78-2.09Z" transform="translate(-250.23 -118.75)"/><path d="M318.69,150.41a2.64,2.64,0,0,0-.67-1.11,9.84,9.84,0,0,0-.76-.7,5.39,5.39,0,0,0-.95-.61c-.27-.12-.37-.15-.53-.21l-.44-.16-1.22-.44-.76-.08a19.18,19.18,0,0,1,.3,2.18l1,.29.8.23a3.58,3.58,0,0,1,.6.34,5,5,0,0,1,.6.47c.19.18.22.2.28.34a4.19,4.19,0,0,1,.13,1.4c0,.54,0,1.08,0,1.6,0,1-.1,2-.19,3a13.76,13.76,0,0,1-.41,2.54,2.81,2.81,0,0,1-1.39,1.47c-.6.34-1.21.65-1.73.91l-.6.29v.41c.25-.08.51-.16.78-.27.57-.21,1.17-.43,1.87-.72a3.59,3.59,0,0,0,1.94-1.71,13.61,13.61,0,0,0,.74-2.73c.2-1,.36-2,.49-3.05.06-.54.11-1.1.15-1.66A5.73,5.73,0,0,0,318.69,150.41Z" transform="translate(-250.23 -118.75)"/><path d="M314.12,147.18c1.62.14,3.51.12,3.24-.82-1.54-.56-3.06-1-4.57-1.48a20.08,20.08,0,0,1,.53,2Z" transform="translate(-250.23 -118.75)"/><path d="M263.77,149.64c0-.26.07-.51.13-.79s.1-.43.16-.64a46,46,0,0,0-5.26,2.62l.58,1.27a8.38,8.38,0,0,1,2.49-1.69C262.5,150.12,263.14,149.87,263.77,149.64Z" transform="translate(-250.23 -118.75)"/><path d="M307.7,145.07c1.3.37,2.54.77,3.74,1.18a19.86,19.86,0,0,0-1.11-2.05,72.48,72.48,0,0,0-43.8,3c-.37.66-.69,1.23-.95,1.78l1.65-.6c-.21.51-.4,1-.56,1.51l14.21-4.32,14.18-.87,12.49,1.63c-.4-.56-.83-1.11-1.27-1.63Z" transform="translate(-250.23 -118.75)"/><path d="M263.77,149.64c-.63.23-1.27.48-1.9.77a8.38,8.38,0,0,0-2.49,1.69l4.28-1.3C263.68,150.43,263.72,150,263.77,149.64Z" transform="translate(-250.23 -118.75)"/><path d="M265.58,149c-.06.12-.12.23-.17.35a8.91,8.91,0,0,0-.37,1.06l1.63-.5c.16-.49.35-1,.56-1.51Z" transform="translate(-250.23 -118.75)"/><path d="M313.36,147.1l.76.08-.8-.29C313.33,147,313.35,147,313.36,147.1Z" transform="translate(-250.23 -118.75)"/><path d="M311.44,146.25c-1.2-.41-2.44-.81-3.74-1.18l-1.42-.38c.44.52.87,1.07,1.27,1.63l4.18.55Z" transform="translate(-250.23 -118.75)"/><path d="M265.3,147.78a11.26,11.26,0,0,0,1.23-3,11.68,11.68,0,0,0,.33-3.62,5.3,5.3,0,0,1,0-1.41c1-3.41,3.49-3.53,4-8.54a8.92,8.92,0,0,1,2-4.06A3,3,0,0,1,274.9,126a8.65,8.65,0,0,1,3.48-.11,7.59,7.59,0,0,1,1.69.48,17.33,17.33,0,0,1,1.82.92,15.46,15.46,0,0,0,2.47,1.15,16.46,16.46,0,0,0,2.61.67,31.24,31.24,0,0,1,4,.81,8.19,8.19,0,0,1,2.89,1.83,33.77,33.77,0,0,0,3.46,2.84,16.74,16.74,0,0,0,3.9,1.88c1.75.59,6,2.72,6.28,7.11.82.21,4.42,1.08,5.24,1.32a20.89,20.89,0,0,0-1.8-4.08,20.63,20.63,0,0,0-4.65-5.54,22,22,0,0,0-3.41-2.27,20.56,20.56,0,0,1-3.12-1.87,34.16,34.16,0,0,1-2.8-2.72,17.34,17.34,0,0,0-1.87-1.63,11,11,0,0,0-2.45-1.36,28.4,28.4,0,0,0-4.78-1.17,12.7,12.7,0,0,1-1.86-.51,12.47,12.47,0,0,1-1.76-.85,20.36,20.36,0,0,0-2.38-1.17,12.9,12.9,0,0,0-8.27-.35,11.1,11.1,0,0,0-2.6,1.12,6.15,6.15,0,0,0-1.36,1.14,5.16,5.16,0,0,0-.95,1.58,9.61,9.61,0,0,0-.55,2.65c-.06.69-.13,1.35-.2,2a19.21,19.21,0,0,1-.71,3.49,10.41,10.41,0,0,1-.61,1.48c-.21.44-.54.89-.92,1.55a6.11,6.11,0,0,0-.52,1.12,4.49,4.49,0,0,0-.24,1.32,9.17,9.17,0,0,0,.21,2,9.41,9.41,0,0,1,.17,2.82,10.31,10.31,0,0,1-.62,2.59c-.24.64-.49,1.31-.68,2,.75-.33,1.57-.67,2.47-1C266.55,147.16,265.28,147.82,265.3,147.78Z" transform="translate(-250.23 -118.75)"/><path d="M263.66,150.8c0,.36,0,.7,0,1l1.13-.35c.07-.36.16-.72.27-1.1Z" transform="translate(-250.23 -118.75)"/><path d="M312,146.9l-.22,0a18.85,18.85,0,0,1,.78,2.09l1.15.32a19.18,19.18,0,0,0-.3-2.18C312.56,147,312,146.9,312,146.9Z" transform="translate(-250.23 -118.75)"/><path d="M263.77,149.64l.89-.33.92-.34c.26-.55.58-1.12.95-1.78-.9.35-1.72.69-2.47,1-.06.21-.12.43-.16.64S263.81,149.38,263.77,149.64Z" transform="translate(-250.23 -118.75)"/><path d="M311.44,146.25l1.88.64a20.08,20.08,0,0,0-.53-2c-.82-.24-1.65-.47-2.46-.68A19.86,19.86,0,0,1,311.44,146.25Z" transform="translate(-250.23 -118.75)"/><path d="M263.77,149.64c0,.4-.09.79-.11,1.16l1.38-.42a8.91,8.91,0,0,1,.37-1.06c0-.12.11-.23.17-.35l-.92.34Z" transform="translate(-250.23 -118.75)"/><path d="M311.44,146.25l.29.62.22,0s.61.11,1.41.2c0-.06,0-.14,0-.21Z" transform="translate(-250.23 -118.75)"/><path d="M253.25,152.83a7.31,7.31,0,0,1,1.64-2.87,9.51,9.51,0,0,1,2.45-1.81,34.49,34.49,0,0,1,4.62-1.83,17.73,17.73,0,0,0,3-1.34,8.14,8.14,0,0,0,1-.68,6.86,6.86,0,0,1-.92.81,15.35,15.35,0,0,1-2.9,1.67,45.81,45.81,0,0,0-4.4,2.1,9.51,9.51,0,0,0-2.15,1.72,6.64,6.64,0,0,0-1.39,2.53,17.44,17.44,0,0,0-.43,5.8,15.43,15.43,0,0,0,.68,4.76,4.76,4.76,0,0,0,2,2.44,3.4,3.4,0,0,0,.82.34l.31.07-.32,0a3.47,3.47,0,0,1-.88-.25,4.9,4.9,0,0,1-2.38-2.38,14.52,14.52,0,0,1-1.06-4.89A16.18,16.18,0,0,1,253.25,152.83Z" transform="translate(-250.23 -118.75)"/><path d="M322.15,154.43c-.67,2.89-.63,5.67-1,8.29a4,4,0,0,1-.84,1.89,5.09,5.09,0,0,1-1.55,1.12,25,25,0,0,1-3,1.13,33.36,33.36,0,0,1-4.5,1.09A3.24,3.24,0,0,1,310,168c-.14,0-.23-.14-.24-.22a.2.2,0,0,1,0-.11s-.07.22.24.29a3.24,3.24,0,0,0,1.22-.21,38.78,38.78,0,0,0,4.37-1.4,26.67,26.67,0,0,0,2.87-1.27,4.17,4.17,0,0,0,1.27-1,3.16,3.16,0,0,0,.6-1.54c.28-2.47.19-5.41.86-8.33s1.18-5.71.51-8.06a3.93,3.93,0,0,0-2-2.58,22.91,22.91,0,0,0-3-.91c-3.76-1-6.08-1.72-6.08-1.72s2.38.44,6.19,1.23l1.5.31A8.12,8.12,0,0,1,320,143a4.11,4.11,0,0,1,1.54,1.16,5.78,5.78,0,0,1,.94,1.79,10.38,10.38,0,0,1,.36,4.17A41.77,41.77,0,0,1,322.15,154.43Z" transform="translate(-250.23 -118.75)"/><path d="M256.87,163.53c-.05,0-.41-2.37-.48-2.81-.25-1.42-2.44-1-2.46.33V162h2.5c-.25-2.52-.9-6,.15-8.43,1.44-3.34,5.07-3.58,7.83-5.2l-1.26-2.16c-3.1,2.1-7.68,4.78-8.3,8.9-.51,3.48,1.1,9,4.17,10.91a1.25,1.25,0,0,0,1.26-2.16c-2.47-1.51-3.54-7.28-2.39-9.74s4.31-4.25,6.52-5.75c1.32-.89.14-3-1.26-2.16-2.91,1.7-6.72,2.14-8.45,5.38s-1.1,7.1-.77,10.41a1.25,1.25,0,0,0,2.5,0v-.94l-2.45.34c.29,1.67.26,3.94,2.22,4.55,1.54.48,2.2-1.93.67-2.41Z" transform="translate(-250.23 -118.75)"/><path d="M264.11,146.73a11,11,0,0,1,1.55-.84l-.68-.68c-.28.56-.64,1.08-1,1.62a.5.5,0,0,0,.86.5c.33-.53.68-1.06,1-1.62a.5.5,0,0,0-.68-.68,8.91,8.91,0,0,0-1.55.84c-.54.35,0,1.22.5.86Z" transform="translate(-250.23 -118.75)"/><path d="M310.47,143.51c2.09.48,5,.68,6.9,1.69,3.11,1.67,2.25,5,1.77,7.83-.28,1.71-.58,3.4-.71,5.12-.3,3.67-1.19,5.39-4.95,6.23l.67,2.41,1.27-.39-1.22-2.09c.23-.28-1.91.82-1.9.91.13.71,3.46-.43,3.75-.54,2.92-1.07,3.62-3,4.34-6s1.87-8.26.8-11.15-5.58-3.18-8.21-3.74c-1.57-.33-2.24,2.08-.66,2.41s5.57.77,6.48,2.33c.47.81-.07,3.24-.13,4.12-.23,3.55-.59,10.87-6,10.13a1.33,1.33,0,0,0-1.42.58,4.62,4.62,0,0,0-.24,3.39,1.27,1.27,0,0,0,1.2.91,5.87,5.87,0,0,0,3.78-1.58c.73-.9.08-2.5-1.22-2.09l-1.27.39a1.25,1.25,0,0,0,.67,2.41c2.11-.47,5-1.15,6.13-3.2.78-1.38.48-3.14.58-4.63.16-2.49.73-4.9,1.07-7.36.31-2.3.53-5.52-1.2-7.36-2.11-2.26-6.76-2.5-9.6-3.14-1.56-.35-2.23,2.06-.66,2.41Z" transform="translate(-250.23 -118.75)"/><path d="M281.87,120.17c1.35.92,2.38,2.06,3.58,2.83a9,9,0,0,0,3.93,1.42,41.23,41.23,0,0,1,4.32.39,5.56,5.56,0,0,1,2.05.91,9,9,0,0,1,1.54,1.47,22,22,0,0,0,2.53,2.88,10.78,10.78,0,0,0,3.13,1.68c2.19.82,4.46,1.45,6,3a10.3,10.3,0,0,1,2.49,4.91,36.27,36.27,0,0,1,.93,4,10.52,10.52,0,0,1,.09,2.61,6.72,6.72,0,0,1-.14.9,8.19,8.19,0,0,0,.1-.9,10.61,10.61,0,0,0-.21-2.59,37.6,37.6,0,0,0-1.07-4,10.13,10.13,0,0,0-2.53-4.64c-1.45-1.35-3.62-1.9-5.88-2.68a11.62,11.62,0,0,1-3.38-1.72,21.84,21.84,0,0,1-2.69-2.93,5.53,5.53,0,0,0-3.15-2,40.89,40.89,0,0,0-4.22-.33,10,10,0,0,1-4.37-1.54c-1.34-.86-2.38-2-3.6-2.83a7.38,7.38,0,0,0-4.05-1.25,15.31,15.31,0,0,0-4.26.52,11.59,11.59,0,0,0-3.78,1.58,5.42,5.42,0,0,0-2.26,3c-.72,2.42-.17,5.15-1.25,7.49a12.08,12.08,0,0,1-2.09,2.84,7.09,7.09,0,0,0-1.65,2.56,4.71,4.71,0,0,0,.12,2.71,12.19,12.19,0,0,1,.56,2.55,7.63,7.63,0,0,1-1,4,21.44,21.44,0,0,1-1.4,2.21l-.54.73.5-.75a23.76,23.76,0,0,0,1.3-2.26,7.38,7.38,0,0,0,.84-3.92,11.2,11.2,0,0,0-.63-2.45,5.18,5.18,0,0,1-.21-3c.57-2.15,2.7-3.47,3.59-5.53a9.76,9.76,0,0,0,.62-3.49,17,17,0,0,1,.45-4,6.32,6.32,0,0,1,2.55-3.49,12.42,12.42,0,0,1,4.07-1.76,16.08,16.08,0,0,1,4.53-.58A8.36,8.36,0,0,1,281.87,120.17Z" transform="translate(-250.23 -118.75)"/><path d="M264.27,147.05a11.81,11.81,0,0,0,.85-4.88,1.25,1.25,0,0,0-2.5,0l0,.47,2.45-.34a16.36,16.36,0,0,1-.68-2.76c-.11-1.94.78-2.44,1.76-3.82a21,21,0,0,0,2.54-4.91l-2.46-.33c-.14,2.51-1.84,4.4-2.62,6.71s-.18,5.06-.62,7.6c-.28,1.58,2.13,2.25,2.41.67.53-3-.14-6.13,1.22-9,1-2,2-3.74,2.11-6,.09-1.49-2-1.58-2.45-.33-1,2.66-3.28,4.54-4.25,7.1-.7,1.84.19,3.91.63,5.72a1.26,1.26,0,0,0,2.46-.33l0-.47h-2.5a10.52,10.52,0,0,1-.76,4.22c-.58,1.5,1.83,2.15,2.41.66Z" transform="translate(-250.23 -118.75)"/><path d="M268.36,130.7c.38-1.51.29-3.18.81-4.65,1.08-3,3.87-3.78,6.79-4,4-.26,5.25,3,8.36,4.72,1.41.77,2.67-1.39,1.26-2.16-2.13-1.16-3-3.65-5.12-4.66-2-.92-5-.53-7.06-.14a9,9,0,0,0-5.48,2.86c-1.63,2.07-1.36,4.91-2,7.33a1.26,1.26,0,0,0,2.42.66Z" transform="translate(-250.23 -118.75)"/><path d="M292.81,127.94c1.85-.13,3.84,3.58,4.83,4.87l2-1.52-.26-.17-1.21.92c.14,0,2.1,1.7,2.48,1.91a12.24,12.24,0,0,0,3.51,1.5c1.56.33,2.24-2,.67-2.41l-1.43-.49-1,2.29a17.47,17.47,0,0,1,3.89,1.62c1.42.76,2.68-1.4,1.26-2.16a18.44,18.44,0,0,0-4.49-1.88c-1.32-.35-2.28,1.66-1,2.29a8.17,8.17,0,0,0,2,.74l.67-2.41a12.36,12.36,0,0,1-4.41-2.2c-.74-.54-1.26-1.27-2.25-1.3a1.28,1.28,0,0,0-1.2.92,2.69,2.69,0,0,0,.91,2.6c.92,1.05,2.83-.38,2-1.51-1.71-2.22-3.7-6.34-7-6.11-1.6.11-1.61,2.61,0,2.5Z" transform="translate(-250.23 -118.75)"/><path d="M305.26,135.89a7.12,7.12,0,0,0,1.59.72l.66-2.41-.07,0-2,1.51,2,1.61,1.51-2-.19-.12-2.15,1.26,1.28,1.76a1.26,1.26,0,0,0,2.33-.63l0-.34-2.45.33a19.55,19.55,0,0,1,.62,2c.38,1.46,2.31,1,2.46-.33l0-.22-2.33.63a9.53,9.53,0,0,1,.72,2.87c.16,1.58,2.66,1.6,2.5,0a13.66,13.66,0,0,0-1.06-4.13c-.54-1.28-2.21-.43-2.33.63l0,.22,2.45-.33a19.55,19.55,0,0,0-.62-2,1.26,1.26,0,0,0-2.46.33l0,.34,2.33-.63-1.29-1.76c-.93-1.28-3.09-.06-2.15,1.26a2.79,2.79,0,0,0,1.08,1c1.19.66,2.66-1,1.52-2l-2-1.6c-1-.84-2.75.21-2,1.51a2.33,2.33,0,0,0,1.57,1.18,1.25,1.25,0,0,0,.66-2.41,2.82,2.82,0,0,1-1-.47,1.25,1.25,0,0,0-1.26,2.16Z" transform="translate(-250.23 -118.75)"/><path d="M295.23,128.64c1.54,1,2.32,2.57,3.71,3.68a9.72,9.72,0,0,0,3.87,1.57c5,1.39,6.68,5.88,7.86,10.46a1.26,1.26,0,0,0,2.42-.66c-1-3.88-2.36-7.92-5.7-10.42-2-1.49-4.28-1.33-6.34-2.5-1.81-1-2.76-3.15-4.55-4.29-1.37-.86-2.62,1.3-1.27,2.16Z" transform="translate(-250.23 -118.75)"/><path d="M291.94,149.12c0,.64-.12,1.19-.16,1.61l-.07.69a3,3,0,0,1-.31-.65,4.61,4.61,0,0,1-.21-1.68,9.55,9.55,0,0,1,.25-1.63l.17-.68a4.24,4.24,0,0,1,.21.68A6.86,6.86,0,0,1,291.94,149.12Z" transform="translate(-250.23 -118.75)"/><path d="M306.93,151.14a6.42,6.42,0,0,1-.53,2.29,9.6,9.6,0,0,1-.22-2.32,9.2,9.2,0,0,1,.38-2.3A6.43,6.43,0,0,1,306.93,151.14Z" transform="translate(-250.23 -118.75)"/><path d="M275.45,151.67a11.32,11.32,0,0,1-.05,2.07,4.19,4.19,0,0,1-.7-2,4.3,4.3,0,0,1,.38-2.1A11.23,11.23,0,0,1,275.45,151.67Z" transform="translate(-250.23 -118.75)"/><path d="M300.13,149.79a4.54,4.54,0,0,1-.64,1.92,7.32,7.32,0,0,1-.1-2,7.62,7.62,0,0,1,.46-1.93A4.4,4.4,0,0,1,300.13,149.79Z" transform="translate(-250.23 -118.75)"/><path d="M313.3,152.48a2.79,2.79,0,0,1-.24,1.44,3.45,3.45,0,0,1-.3.53s0-.23-.07-.59-.09-.8-.13-1.32a5,5,0,0,1,.08-1.39c.05-.34.11-.58.11-.58a3.51,3.51,0,0,1,.26.55A5.55,5.55,0,0,1,313.3,152.48Z" transform="translate(-250.23 -118.75)"/><path d="M284.31,149.84a6.35,6.35,0,0,1-.2,1.35c-.09.34-.16.57-.16.57a3.74,3.74,0,0,1-.22-.56,4.9,4.9,0,0,1-.17-1.38,12.12,12.12,0,0,1,.15-1.33l.1-.58a2.39,2.39,0,0,1,.27.54A3.48,3.48,0,0,1,284.31,149.84Z" transform="translate(-250.23 -118.75)"/><path d="M267.73,153.87a14.27,14.27,0,0,1,0,2.08,3.47,3.47,0,0,1-.33-.55,4,4,0,0,1-.41-1.47,4.22,4.22,0,0,1,.18-1.52,3.7,3.7,0,0,1,.24-.6A14.4,14.4,0,0,1,267.73,153.87Z" transform="translate(-250.23 -118.75)"/></g></svg>